<?xml version="1.0" encoding="utf-8"?>
<!-- Generator: Adobe Illustrator 19.0.0, SVG Export Plug-In . SVG Version: 6.00 Build 0)  -->
<svg version="1.0" id="Layer_1" xmlns="http://www.w3.org/2000/svg" xmlns:xlink="http://www.w3.org/1999/xlink" x="0px" y="0px"
	 viewBox="0 0 20 20" style="enable-background:new 0 0 20 20;" xml:space="preserve">
<style type="text/css">
	.st0{filter:url(#Adobe_OpacityMaskFilter);}
	.st1{mask:url(#XMLID_209_);}
	.st2{fill:#1F1F1F;}
	.st3{fill:#BEBEBE;}
	.st4{fill:#B8B8B8;}
	.st5{fill:#C2C2C2;}
	.st6{fill:#626262;}
	.st7{fill:#3D3D3D;}
	.st8{fill:#D1D1D1;}
	.st9{fill:#A7A7A7;}
	.st10{fill:#BFBFBF;}
	.st11{fill:#E3E3E3;}
	.st12{fill:#B9B9B9;}
	.st13{fill:#6C6C6C;}
	.st14{fill:#C4C4C4;}
	.st15{fill:#7C7C7C;}
	.st16{fill:#767676;}
	.st17{fill:#424242;}
	.st18{fill:#484848;}
	.st19{fill:#DEDEDE;}
	.st20{fill:#A1A1A1;}
	.st21{fill:#606060;}
	.st22{fill:#C6C6C6;}
	.st23{fill:#D8D8D8;}
	.st24{fill:#828282;}
	.st25{fill:#BBBBBB;}
	.st26{fill:#5D5D5D;}
	.st27{fill:#D7D7D7;}
	.st28{fill:#707070;}
	.st29{fill:#AAAAAA;}
	.st30{fill:#DDDDDD;}
	.st31{fill:#B1B1B1;}
	.st32{fill:#585858;}
	.st33{fill:#9B9B9B;}
	.st34{fill:#8C8C8C;}
	.st35{fill:#8D8D8D;}
	.st36{fill:#7B7B7B;}
	.st37{fill:#5E5E5E;}
	.st38{fill:#C0C0C0;}
	.st39{fill:#535353;}
	.st40{fill:#C1C1C1;}
	.st41{fill:#8F8F8F;}
	.st42{fill:#868686;}
	.st43{fill:#E2E2E2;}
	.st44{fill:#646464;}
	.st45{fill:#A3A3A3;}
	.st46{fill:#818181;}
	.st47{fill:#565656;}
	.st48{fill:#C8C8C8;}
	.st49{fill:#797979;}
	.st50{fill:#8A8A8A;}
	.st51{fill:#A9A9A9;}
	.st52{fill:#595959;}
	.st53{fill:#858585;}
	.st54{fill:#777777;}
	.st55{fill:#434343;}
	.st56{fill:#C5C5C5;}
	.st57{fill:#D2D2D2;}
	.st58{fill:#B2B2B2;}
	.st59{fill:#8E8E8E;}
	.st60{fill:#B0B0B0;}
	.st61{fill:#919191;}
	.st62{fill:#757575;}
	.st63{fill:#737373;}
	.st64{fill:#ACACAC;}
	.st65{fill:#9F9F9F;}
	.st66{fill:#999999;}
	.st67{fill:#3C3C3C;}
	.st68{fill:#DFDFDF;}
	.st69{fill:#848484;}
	.st70{fill:#787878;}
	.st71{fill:#939393;}
	.st72{fill:#6D6D6D;}
	.st73{fill:#717171;}
	.st74{fill:#A2A2A2;}
	.st75{fill:#DCDCDC;}
	.st76{fill:#4C4C4C;}
	.st77{fill:#545454;}
	.st78{fill:#3F3F3F;}
</style>
<defs>
	<filter id="Adobe_OpacityMaskFilter" filterUnits="userSpaceOnUse" x="100.5" y="0.7" width="18.6" height="18.6">
		<feFlood  style="flood-color:white;flood-opacity:1" result="back"/>
		<feBlend  in="SourceGraphic" in2="back" mode="normal"/>
	</filter>
</defs>
<mask maskUnits="userSpaceOnUse" x="100.5" y="0.7" width="18.6" height="18.6" id="XMLID_209_">
	<g id="XMLID_1_" class="st0">
	</g>
</mask>
<g id="XMLID_6_" class="st1">
	<g id="XMLID_2_">
		<path id="XMLID_367_" class="st2" d="M115,11.4c0-0.1,0-0.1,0-0.2c0,0,0,0,0,0c0,0,0,0,0,0c0,0,0,0,0,0c0-0.1,0-0.1-0.1-0.2
			c0,0,0-0.1-0.1-0.1c0,0,0,0,0-0.1c-0.3-0.4-0.7-0.7-1.2-0.8c-0.1,0-0.1,0-0.2,0c-0.2,0-0.4,0-0.5,0c-0.1,0-0.1,0-0.2,0
			c-0.2,0-0.3,0.1-0.5,0.1c-0.1,0-0.1,0-0.2,0.1c0,0,0,0,0,0c-0.1,0-0.1,0.1-0.2,0.1c0,0-0.1,0-0.1,0.1c-0.1,0.1-0.1,0.1-0.2,0.2
			c0,0,0,0,0,0.1c0,0,0,0,0,0.1c-0.1,0.1-0.1,0.2-0.2,0.3c0,0,0,0,0,0.1c-0.1,0.1-0.1,0.3-0.2,0.4c0,0,0,0,0,0c0,0,0,0,0,0l0,0
			c0,0,0,0,0,0.1c0,0,0,0.1,0,0.1c0,0,0,0,0,0c0,0,0,0,0,0c0,0,0,0,0,0c0,0,0,0,0,0c0,0,0,0.1,0,0.1c0,0.1,0,0.1,0,0.2
			c0,0,0,0.1,0,0.1c0,0,0,0.1,0,0.1c0,0.1,0,0.1,0,0.2c0,2.3,0,4.5,0,6.8c0,0,0,0,0,0c-1.3,0-2.5,0-3.8,0c0,0-0.1,0-0.1-0.1
			c0-0.9,0-1.8,0-2.8c0-3.2,0-6.4,0-9.5c0,0,0,0,0,0c0,0,0-0.1,0.1-0.1c1.2,0,2.4,0,3.6,0c0.1,0,0.1,0,0.1,0.1c0,0.5,0,1.1,0,1.6
			c0,0,0,0.1,0,0.1c0,0,0.1,0,0.1,0c0.1-0.1,0.1-0.2,0.2-0.3c0,0,0,0,0-0.1c0,0,0.1-0.1,0.1-0.2c0,0,0.1-0.1,0.1-0.1
			c0,0,0,0,0.1-0.1c0-0.1,0.1-0.1,0.2-0.2c0,0,0,0,0.1,0c0,0,0,0,0.1-0.1c0,0,0,0,0,0c0.2-0.2,0.4-0.3,0.6-0.4c0,0,0,0,0,0
			c0,0,0,0,0,0c0,0,0,0,0,0l0,0c0,0,0,0,0.1,0c0,0,0,0,0,0c0,0,0.1,0,0.1,0l0,0c0,0,0,0,0,0c0,0,0,0,0,0c0,0,0,0,0.1,0
			c0,0,0.1,0,0.2-0.1c0,0,0,0,0,0c0,0,0.1,0,0.1,0c0.1,0,0.1,0,0.2-0.1c0.1,0,0.3-0.1,0.4-0.1c0,0,0,0,0.1,0c0,0,0,0,0.1,0
			c0,0,0.1,0,0.1,0c0,0,0,0,0.1,0c0,0,0,0,0,0c0,0,0.1,0,0.1,0c0,0,0,0,0.1,0c0.3,0,0.5,0,0.8,0c0.1,0,0.2,0,0.3,0c0,0,0.1,0,0.1,0
			c0,0,0,0,0,0c0,0,0,0,0.1,0c0,0,0.1,0,0.1,0c0,0,0,0,0,0c0,0,0,0,0,0c0,0,0.1,0,0.1,0c0,0,0,0,0,0c0,0,0.1,0,0.1,0c0,0,0,0,0,0
			c0.2,0,0.3,0.1,0.5,0.1c0,0,0.1,0,0.1,0c0,0,0,0,0,0c0,0,0,0,0,0c0,0,0,0,0,0c0.1,0,0.1,0,0.2,0.1c0.1,0,0.2,0.1,0.3,0.1
			c0,0,0,0,0,0c0,0,0,0,0,0c0.1,0,0.1,0.1,0.2,0.1c0,0,0,0,0.1,0l0,0c0,0,0.1,0,0.1,0.1c0,0,0.1,0.1,0.1,0.1c0,0,0,0,0.1,0
			c0,0,0,0,0,0c0,0,0,0,0,0c0,0,0,0,0,0l0,0c0,0,0,0,0,0c0.1,0.1,0.1,0.1,0.2,0.2c0,0,0,0,0.1,0.1c0,0.1,0.1,0.1,0.1,0.2
			c0,0,0,0,0,0l0,0c0,0,0,0.1,0.1,0.1c0.1,0.1,0.1,0.2,0.2,0.3c0,0,0,0.1,0.1,0.1c0.1,0.2,0.2,0.3,0.2,0.5c0,0.1,0.1,0.2,0.1,0.3
			c0,0,0,0,0,0c0,0,0,0.1,0,0.1c0,0,0,0,0,0c0,0,0,0,0,0c0,0.1,0,0.2,0.1,0.2c0,0.1,0,0.2,0.1,0.3c0,0,0,0,0,0.1
			c0,0.2,0.1,0.4,0.1,0.6c0,0,0,0.1,0,0.1c0,0,0,0,0,0c0,0,0,0.1,0,0.1c0,0.2,0,0.4,0,0.6c0,0.2,0,0.4,0,0.7c0,2.3,0,4.7,0,7
			c0,0.1,0,0.1-0.1,0.1c-1.3,0-2.5,0-3.8,0c-0.1,0-0.1,0-0.1-0.1c0-2,0-4,0-5.9c0-0.2,0-0.4,0-0.7c0,0,0,0,0-0.1c0,0,0,0,0-0.1
			c0-0.1,0-0.2,0-0.4c0-0.1,0-0.2,0-0.2c0,0,0-0.1,0-0.1C115.1,11.8,115.1,11.6,115,11.4C115.1,11.5,115.1,11.5,115,11.4
			C115,11.5,115.1,11.4,115,11.4z"/>
		<path id="XMLID_366_" class="st2" d="M104.7,13.1c0,2.1,0,4.1,0,6.2c0,0.1,0,0.1-0.1,0.1c-1.2,0-2.5,0-3.7,0c-0.1,0-0.1,0-0.1-0.1
			c0-4.1,0-8.2,0-12.3c0-0.1,0-0.1,0.1-0.1c1.2,0,2.5,0,3.7,0c0.1,0,0.1,0,0.1,0.1C104.7,9,104.7,11.1,104.7,13.1z"/>
		<path id="XMLID_365_" class="st2" d="M104.1,4.7c-0.1,0.1-0.2,0.1-0.3,0.2c0,0,0,0,0,0c-0.1,0-0.1,0.1-0.2,0.1c0,0,0,0,0,0
			c0,0,0,0,0,0c0,0,0,0,0,0c0,0-0.1,0-0.1,0c0,0-0.1,0-0.1,0c0,0,0,0,0,0c-0.1,0-0.2,0-0.2,0c-0.2,0-0.4,0-0.6,0c0,0-0.1,0-0.1,0
			c0,0-0.1,0-0.1,0c-0.1,0-0.1,0-0.2-0.1c0,0,0,0-0.1,0c0,0-0.1,0-0.1-0.1c0,0-0.1-0.1-0.1-0.1c0,0-0.1-0.1-0.1-0.1
			c-0.2-0.1-0.3-0.2-0.4-0.4c0,0,0,0,0,0c-0.1-0.1-0.2-0.2-0.2-0.4c0-0.1-0.1-0.1-0.1-0.2c0,0,0,0,0,0c0,0,0,0,0-0.1
			c0,0,0-0.1,0-0.1c-0.1-0.3-0.1-0.6-0.1-0.9c0-0.1,0-0.3,0.1-0.4c0-0.1,0-0.1,0.1-0.2c0,0,0,0,0-0.1c0,0,0,0,0,0c0,0,0,0,0,0
			c0,0,0,0,0,0c0,0,0-0.1,0-0.1c0,0,0,0,0-0.1c0,0,0,0,0-0.1c0,0,0,0,0-0.1c0.1-0.2,0.2-0.3,0.4-0.4c0,0,0,0,0,0
			c0,0,0.1-0.1,0.1-0.1c0,0,0,0,0,0c0,0,0,0,0,0c0.2-0.1,0.3-0.2,0.5-0.3c0,0,0,0,0,0c0.1,0,0.1,0,0.2-0.1c0,0,0,0,0.1,0
			c0,0,0,0,0.1,0c0,0,0,0,0.1,0c0.3-0.1,0.5-0.1,0.8,0c0,0,0.1,0,0.1,0c0.1,0,0.1,0,0.2,0.1c0,0,0.1,0,0.1,0c0,0,0,0,0,0
			c0.1,0,0.1,0.1,0.2,0.1c0.1,0,0.1,0.1,0.1,0.1c0.1,0,0.1,0.1,0.2,0.1c0,0,0.1,0,0.1,0.1c0,0,0,0,0,0c0,0,0,0,0,0
			c0,0,0.1,0.1,0.1,0.1c0,0,0,0,0,0c0,0,0,0,0,0c0,0,0,0,0.1,0.1c0,0,0,0,0,0c0,0,0.1,0.1,0.1,0.1c0,0.1,0.1,0.1,0.1,0.2
			c0,0.1,0.1,0.2,0.1,0.2c0,0,0,0.1,0,0.1c0,0,0,0,0,0.1c0,0,0,0.1,0,0.1c0,0.2,0.1,0.4,0.1,0.6c0,0.1,0,0.1,0,0.2
			c0,0.1,0,0.2,0,0.2c0,0,0,0,0,0c0,0,0,0,0,0.1c0,0,0,0.1,0,0.1c0,0,0,0,0,0c0,0,0,0,0,0c0,0.1-0.1,0.1-0.1,0.2c0,0,0,0.1,0,0.1
			c0,0,0,0.1,0,0.1c0,0.1-0.1,0.1-0.1,0.2c0,0,0,0,0,0C104.4,4.4,104.3,4.6,104.1,4.7C104.1,4.7,104.1,4.7,104.1,4.7z"/>
		<path id="XMLID_364_" class="st3" d="M100.6,2.2c0,0.1,0,0.1,0,0.2c0,0.1-0.1,0.2-0.1,0.3c0,0.2,0,0.5,0,0.7c0,0.1,0,0.1,0,0.2
			c0,0,0,0,0,0c0-0.1-0.1-0.2-0.1-0.3c0-0.2,0-0.4,0-0.5c0-0.1,0-0.3,0.1-0.4C100.6,2.3,100.6,2.3,100.6,2.2
			C100.6,2.2,100.6,2.2,100.6,2.2z"/>
		<path id="XMLID_363_" class="st4" d="M115.2,12c0,0.2,0,0.4,0,0.6c0,0,0,0,0,0.1c0,0,0,0,0-0.1C115.2,12.4,115.2,12.2,115.2,12
			c0-0.1,0-0.2-0.1-0.3c0-0.1,0-0.1,0-0.2c0,0.1,0,0.1,0,0.2C115.1,11.8,115.1,11.8,115.2,12C115.2,11.9,115.1,12,115.2,12z"/>
		<path id="XMLID_362_" class="st5" d="M104.9,3.2c0-0.1,0-0.2,0-0.3c0-0.1,0-0.3,0-0.4c0-0.1,0-0.1,0-0.2c0,0,0,0,0,0
			c0.1,0.3,0.1,0.5,0.1,0.8C104.9,3.1,105,3.2,104.9,3.2C104.9,3.2,104.9,3.3,104.9,3.2c0,0.1,0,0.1,0,0.1
			C104.9,3.3,104.9,3.3,104.9,3.2z"/>
		<path id="XMLID_361_" class="st6" d="M102.4,5.1c0,0,0.1,0,0.1,0c0.2,0,0.3,0,0.5,0c0.1,0,0.2,0,0.3,0c0,0,0,0,0,0
			c-0.2,0.1-0.4,0.1-0.7,0c0,0,0,0-0.1,0C102.5,5.1,102.4,5.2,102.4,5.1C102.4,5.1,102.4,5.1,102.4,5.1
			C102.4,5.1,102.4,5.1,102.4,5.1C102.4,5.1,102.4,5.1,102.4,5.1z"/>
		<path id="XMLID_360_" class="st7" d="M119,10.8c0-0.1,0-0.1,0-0.2c0-0.1,0-0.2,0-0.2c0-0.1,0-0.1,0-0.2c0,0.1,0,0.2,0.1,0.3
			c0,0,0,0.1,0,0.1C119,10.6,119,10.7,119,10.8C119,10.7,119,10.7,119,10.8C119,10.8,119,10.8,119,10.8z"/>
		<path id="XMLID_359_" class="st8" d="M116.3,6.8c-0.1,0-0.1,0-0.2-0.1c-0.1,0-0.1,0-0.2,0c0,0,0,0,0,0c0.1,0,0.1,0,0.2,0
			C116.1,6.8,116.2,6.8,116.3,6.8C116.3,6.8,116.3,6.8,116.3,6.8z"/>
		<path id="XMLID_358_" class="st9" d="M111,12.1c0-0.1,0-0.1,0-0.2c0,0,0,0,0,0C111,12,111,12.1,111,12.1c0,0.1,0,0.2,0,0.2
			c0,0,0,0,0,0C110.9,12.3,110.9,12.2,111,12.1C110.9,12.2,110.9,12.1,111,12.1z"/>
		<path id="XMLID_357_" class="st10" d="M101.9,5c0.1,0,0.2,0,0.2,0.1c0,0,0,0,0,0c0,0,0,0,0,0C102.1,5.1,102,5.1,101.9,5z"/>
		<path id="XMLID_356_" class="st11" d="M104.7,1.9c0-0.1-0.1-0.1-0.1-0.2C104.6,1.8,104.7,1.9,104.7,1.9z"/>
		<path id="XMLID_355_" class="st12" d="M113.2,6.8c-0.1,0-0.1,0.1-0.2,0.1C113.1,6.8,113.2,6.8,113.2,6.8z"/>
		<path id="XMLID_354_" class="st13" d="M104.9,3.2c0,0,0,0.1,0,0.1c0,0,0,0.1,0,0.1C104.9,3.4,104.9,3.3,104.9,3.2z"/>
		<path id="XMLID_353_" class="st14" d="M114.1,6.6C114.1,6.6,114,6.6,114.1,6.6c-0.1,0-0.1,0-0.1,0C114,6.6,114,6.6,114.1,6.6
			C114.1,6.6,114.1,6.6,114.1,6.6z"/>
		<path id="XMLID_352_" class="st10" d="M102.4,5.1C102.4,5.1,102.4,5.1,102.4,5.1c-0.1,0-0.1,0-0.2,0c0,0,0.1,0,0.1,0
			C102.3,5.1,102.3,5.1,102.4,5.1z"/>
		<path id="XMLID_351_" class="st15" d="M110.9,12.3C110.9,12.3,110.9,12.3,110.9,12.3c0,0.1,0,0.2,0,0.2
			C110.9,12.4,110.9,12.4,110.9,12.3z"/>
		<path id="XMLID_350_" class="st16" d="M101.5,4.8c0.1,0,0.1,0,0.1,0.1C101.6,4.9,101.5,4.8,101.5,4.8z"/>
		<path id="XMLID_349_" class="st17" d="M113.4,10c0,0,0.1,0,0.1,0c0,0,0,0,0,0C113.5,10,113.5,10,113.4,10z"/>
		<path id="XMLID_348_" class="st18" d="M112.7,10C112.8,10,112.8,10,112.7,10c0.1,0,0.1,0,0.2,0C112.9,10,112.8,10,112.7,10z"/>
		<path id="XMLID_347_" class="st19" d="M100.6,3.6C100.6,3.6,100.6,3.6,100.6,3.6c0,0,0,0.1,0.1,0.1C100.6,3.7,100.6,3.6,100.6,3.6
			z"/>
		<path id="XMLID_346_" class="st5" d="M103.9,1.1c-0.1,0-0.1,0-0.1-0.1C103.8,1,103.9,1,103.9,1.1z"/>
		<path id="XMLID_345_" class="st20" d="M101.3,1.2C101.3,1.3,101.3,1.3,101.3,1.2C101.3,1.3,101.3,1.2,101.3,1.2z"/>
		<path id="XMLID_344_" class="st16" d="M114.8,10.8c0,0,0.1,0.1,0.1,0.1C114.9,10.9,114.8,10.9,114.8,10.8
			C114.8,10.8,114.8,10.8,114.8,10.8z"/>
		<path id="XMLID_343_" class="st21" d="M115.5,6.7C115.5,6.7,115.4,6.7,115.5,6.7C115.4,6.7,115.5,6.7,115.5,6.7
			C115.5,6.7,115.5,6.7,115.5,6.7z"/>
		<path id="XMLID_342_" class="st22" d="M119.1,11c0,0,0-0.1,0-0.1C119.1,10.9,119.1,11,119.1,11z"/>
		<path id="XMLID_341_" class="st21" d="M118.8,9.5c0,0,0-0.1,0-0.1C118.8,9.4,118.8,9.5,118.8,9.5z"/>
		<path id="XMLID_340_" class="st23" d="M119,10.6c0,0,0-0.1,0-0.1C119.1,10.5,119,10.6,119,10.6z"/>
		<path id="XMLID_339_" class="st24" d="M118.4,8.6c0,0-0.1-0.1-0.1-0.1C118.4,8.5,118.4,8.5,118.4,8.6z"/>
		<path id="XMLID_338_" class="st25" d="M113.9,6.7C113.8,6.7,113.8,6.7,113.9,6.7C113.8,6.6,113.8,6.6,113.9,6.7
			C113.9,6.6,113.9,6.6,113.9,6.7z"/>
		<path id="XMLID_337_" class="st26" d="M115.3,6.7C115.3,6.6,115.2,6.7,115.3,6.7C115.2,6.6,115.3,6.6,115.3,6.7
			C115.3,6.6,115.3,6.6,115.3,6.7z"/>
		<path id="XMLID_336_" class="st27" d="M115.8,6.7c0,0-0.1,0-0.1,0C115.7,6.7,115.8,6.7,115.8,6.7z"/>
		<path id="XMLID_335_" class="st28" d="M103.3,5.1c0,0,0.1,0,0.1,0C103.3,5.1,103.3,5.1,103.3,5.1z"/>
		<path id="XMLID_334_" class="st29" d="M118,7.9C117.9,7.9,117.9,7.9,118,7.9C117.9,7.8,118,7.9,118,7.9z"/>
		<path id="XMLID_333_" class="st10" d="M102.4,5.1C102.4,5.1,102.5,5.1,102.4,5.1C102.4,5.2,102.4,5.2,102.4,5.1z"/>
		<path id="XMLID_332_" class="st30" d="M115.7,6.7c0,0-0.1,0-0.1,0C115.6,6.7,115.6,6.7,115.7,6.7z"/>
		<path id="XMLID_331_" class="st9" d="M111,11.8C111,11.8,111,11.8,111,11.8C111,11.8,111,11.8,111,11.8
			C111,11.8,111,11.9,111,11.8C111,11.9,111,11.9,111,11.8z"/>
		<path id="XMLID_330_" class="st31" d="M104.7,4C104.7,4,104.7,4,104.7,4C104.7,4,104.7,4,104.7,4C104.6,4.1,104.6,4,104.7,4z"/>
		<path id="XMLID_329_" class="st32" d="M104.2,1.3C104.1,1.2,104.1,1.2,104.2,1.3C104.1,1.2,104.1,1.2,104.2,1.3z"/>
		<path id="XMLID_328_" class="st33" d="M119,10.8C119,10.8,119,10.8,119,10.8C119,10.7,119,10.7,119,10.8
			C119.1,10.8,119.1,10.8,119,10.8C119,10.8,119.1,10.8,119,10.8z"/>
		<path id="XMLID_327_" class="st34" d="M111.8,10.4C111.8,10.3,111.9,10.3,111.8,10.4C111.9,10.3,111.8,10.3,111.8,10.4z"/>
		<path id="XMLID_326_" class="st35" d="M117.4,7.4C117.4,7.4,117.3,7.3,117.4,7.4C117.3,7.3,117.4,7.3,117.4,7.4z"/>
		<path id="XMLID_325_" class="st28" d="M111.4,7.9C111.4,7.9,111.3,7.9,111.4,7.9C111.3,7.9,111.3,7.9,111.4,7.9z"/>
		<path id="XMLID_324_" class="st35" d="M112.6,7C112.6,7,112.5,7,112.6,7C112.5,7,112.5,7,112.6,7z"/>
		<path id="XMLID_323_" class="st36" d="M113.7,6.7C113.7,6.7,113.7,6.7,113.7,6.7C113.7,6.6,113.7,6.7,113.7,6.7z"/>
		<path id="XMLID_322_" class="st37" d="M103.2,0.8C103.2,0.8,103.1,0.8,103.2,0.8C103.2,0.8,103.2,0.8,103.2,0.8z"/>
		<path id="XMLID_321_" class="st6" d="M118.2,8.2C118.2,8.2,118.1,8.1,118.2,8.2C118.2,8.1,118.2,8.1,118.2,8.2z"/>
		<path id="XMLID_320_" class="st18" d="M104.7,4C104.6,4,104.6,4.1,104.7,4C104.6,4.1,104.6,4.1,104.7,4
			C104.6,4.1,104.6,4.1,104.7,4z"/>
		<path id="XMLID_319_" class="st38" d="M111.1,8.2C111,8.2,111,8.3,111.1,8.2C111,8.3,111,8.2,111.1,8.2z"/>
		<path id="XMLID_318_" class="st39" d="M111.5,10.6C111.5,10.6,111.5,10.6,111.5,10.6C111.6,10.6,111.6,10.6,111.5,10.6
			C111.5,10.6,111.5,10.6,111.5,10.6z"/>
		<path id="XMLID_317_" class="st3" d="M111.5,10.6C111.5,10.6,111.5,10.6,111.5,10.6C111.5,10.6,111.5,10.7,111.5,10.6
			C111.5,10.6,111.5,10.6,111.5,10.6z"/>
		<path id="XMLID_316_" class="st40" d="M100.9,1.7C100.9,1.8,100.8,1.8,100.9,1.7C100.8,1.8,100.8,1.8,100.9,1.7
			C100.8,1.8,100.8,1.8,100.9,1.7z"/>
		<path id="XMLID_315_" class="st41" d="M102.3,0.8C102.3,0.8,102.2,0.8,102.3,0.8C102.2,0.8,102.3,0.8,102.3,0.8
			C102.3,0.8,102.3,0.8,102.3,0.8z"/>
		<path id="XMLID_314_" class="st20" d="M100.8,1.9C100.8,1.9,100.8,1.9,100.8,1.9C100.7,1.9,100.8,1.9,100.8,1.9
			C100.8,1.9,100.8,1.9,100.8,1.9z"/>
		<path id="XMLID_313_" class="st42" d="M111.1,11.6C111,11.5,111.1,11.5,111.1,11.6C111.1,11.5,111.1,11.5,111.1,11.6z"/>
		<path id="XMLID_312_" class="st43" d="M100.8,1.9C100.8,1.9,100.8,1.9,100.8,1.9C100.8,1.8,100.8,1.8,100.8,1.9
			C100.8,1.8,100.8,1.8,100.8,1.9C100.8,1.8,100.8,1.9,100.8,1.9z"/>
		<path id="XMLID_311_" class="st44" d="M111.7,7.5C111.7,7.6,111.7,7.6,111.7,7.5C111.7,7.6,111.7,7.6,111.7,7.5z"/>
		<path id="XMLID_310_" class="st45" d="M114.8,10.8C114.8,10.8,114.8,10.8,114.8,10.8C114.8,10.8,114.8,10.8,114.8,10.8
			C114.8,10.8,114.8,10.8,114.8,10.8z"/>
		<path id="XMLID_309_" class="st46" d="M117.6,7.5C117.6,7.5,117.5,7.5,117.6,7.5C117.6,7.5,117.6,7.5,117.6,7.5z"/>
		<path id="XMLID_308_" class="st47" d="M102.2,5.1C102.2,5.1,102.2,5.1,102.2,5.1C102.2,5.1,102.2,5.1,102.2,5.1
			C102.2,5.1,102.2,5.1,102.2,5.1C102.2,5.1,102.2,5.1,102.2,5.1z"/>
		<path id="XMLID_307_" class="st48" d="M115,11.4C115.1,11.4,115.1,11.4,115,11.4C115,11.5,115,11.4,115,11.4z"/>
		<path id="XMLID_306_" class="st49" d="M111.6,7.6C111.6,7.7,111.6,7.7,111.6,7.6C111.5,7.7,111.6,7.7,111.6,7.6z"/>
		<path id="XMLID_305_" class="st50" d="M112.5,7.1C112.4,7.1,112.4,7.1,112.5,7.1C112.4,7.1,112.4,7.1,112.5,7.1z"/>
		<path id="XMLID_304_" class="st51" d="M104.2,1.3C104.2,1.3,104.2,1.3,104.2,1.3C104.2,1.3,104.2,1.3,104.2,1.3z"/>
		<path id="XMLID_303_" class="st52" d="M104.9,3.5C104.9,3.5,104.8,3.5,104.9,3.5C104.9,3.5,104.9,3.5,104.9,3.5z"/>
		<path id="XMLID_302_" class="st53" d="M101,4.4C101,4.4,101.1,4.4,101,4.4C101,4.4,101,4.4,101,4.4z"/>
		<path id="XMLID_301_" class="st54" d="M104.1,4.7C104.1,4.7,104.1,4.6,104.1,4.7C104.1,4.7,104.1,4.7,104.1,4.7z"/>
		<path id="XMLID_300_" class="st37" d="M103.5,5C103.5,5,103.5,5,103.5,5C103.5,5,103.5,5,103.5,5z"/>
		<path id="XMLID_299_" class="st55" d="M102.3,0.8C102.3,0.8,102.3,0.8,102.3,0.8C102.3,0.8,102.3,0.8,102.3,0.8
			C102.3,0.8,102.3,0.8,102.3,0.8z"/>
		<path id="XMLID_298_" class="st56" d="M119.1,10.7C119,10.7,119,10.7,119.1,10.7C119,10.7,119,10.7,119.1,10.7
			C119.1,10.7,119.1,10.7,119.1,10.7z"/>
		<path id="XMLID_297_" class="st53" d="M111.3,11C111.3,11,111.3,10.9,111.3,11C111.3,11,111.3,11,111.3,11z"/>
		<path id="XMLID_296_" class="st57" d="M115.5,6.7C115.5,6.7,115.5,6.7,115.5,6.7C115.5,6.7,115.5,6.6,115.5,6.7
			C115.5,6.7,115.5,6.7,115.5,6.7z"/>
		<path id="XMLID_295_" class="st5" d="M115.3,6.7C115.3,6.6,115.3,6.6,115.3,6.7C115.3,6.6,115.3,6.6,115.3,6.7
			C115.3,6.7,115.3,6.7,115.3,6.7z"/>
		<path id="XMLID_294_" class="st58" d="M112.9,6.9C112.9,6.9,112.9,6.9,112.9,6.9C112.9,6.9,112.9,6.9,112.9,6.9z"/>
		<path id="XMLID_293_" class="st59" d="M117.3,7.3C117.3,7.3,117.3,7.3,117.3,7.3C117.3,7.3,117.3,7.3,117.3,7.3z"/>
		<path id="XMLID_292_" class="st47" d="M113.9,6.7C113.9,6.6,113.9,6.6,113.9,6.7C113.9,6.6,113.9,6.6,113.9,6.7
			C113.9,6.7,113.9,6.7,113.9,6.7z"/>
		<path id="XMLID_291_" class="st54" d="M116.5,6.9C116.5,6.9,116.4,6.9,116.5,6.9C116.5,6.9,116.5,6.9,116.5,6.9z"/>
		<path id="XMLID_290_" class="st60" d="M111.1,11.5C111.1,11.5,111.1,11.5,111.1,11.5C111.1,11.5,111.1,11.5,111.1,11.5z"/>
		<path id="XMLID_289_" class="st45" d="M115,11.2C115,11.2,115,11.2,115,11.2C115,11.2,115,11.2,115,11.2z"/>
		<path id="XMLID_288_" class="st61" d="M104.9,2.3C104.9,2.3,104.9,2.3,104.9,2.3C104.8,2.3,104.8,2.3,104.9,2.3
			C104.9,2.3,104.9,2.3,104.9,2.3z"/>
		<path id="XMLID_287_" class="st62" d="M112.7,7C112.7,7,112.7,7,112.7,7C112.7,6.9,112.7,6.9,112.7,7z"/>
		<path id="XMLID_286_" class="st51" d="M112.6,7C112.6,7,112.6,7,112.6,7C112.6,7,112.6,7,112.6,7z"/>
		<path id="XMLID_285_" class="st63" d="M111,11.8C111,11.9,111,11.9,111,11.8C111,11.9,111,11.9,111,11.8
			C111,11.9,111,11.9,111,11.8C111,11.9,111,11.9,111,11.8z"/>
		<path id="XMLID_284_" class="st12" d="M111,11.7C111,11.7,111,11.8,111,11.7C111,11.8,111,11.8,111,11.7
			C111,11.7,111,11.7,111,11.7z"/>
		<path id="XMLID_283_" class="st63" d="M111,11.7C111,11.7,111,11.7,111,11.7C111,11.7,111,11.7,111,11.7
			C111,11.7,111,11.7,111,11.7C111,11.7,111,11.7,111,11.7C111,11.7,111,11.7,111,11.7z"/>
		<path id="XMLID_282_" class="st46" d="M104.4,1.5C104.3,1.5,104.3,1.4,104.4,1.5C104.3,1.4,104.4,1.4,104.4,1.5
			C104.4,1.5,104.4,1.5,104.4,1.5z"/>
		<path id="XMLID_281_" class="st51" d="M104.4,1.5C104.4,1.5,104.4,1.5,104.4,1.5C104.4,1.5,104.4,1.5,104.4,1.5
			C104.4,1.5,104.4,1.5,104.4,1.5z"/>
		<path id="XMLID_280_" class="st64" d="M117.7,7.6C117.6,7.6,117.6,7.6,117.7,7.6C117.6,7.5,117.7,7.6,117.7,7.6
			C117.7,7.6,117.7,7.6,117.7,7.6z"/>
		<path id="XMLID_279_" class="st20" d="M117.7,7.6C117.7,7.6,117.7,7.6,117.7,7.6C117.7,7.6,117.7,7.6,117.7,7.6
			C117.7,7.6,117.7,7.6,117.7,7.6z"/>
		<path id="XMLID_278_" class="st65" d="M115,11.1C115,11.1,115,11.1,115,11.1C114.9,11.2,114.9,11.1,115,11.1z"/>
		<path id="XMLID_277_" class="st47" d="M100.7,2C100.7,2.1,100.7,2.1,100.7,2C100.7,2.1,100.7,2,100.7,2z"/>
		<path id="XMLID_276_" class="st62" d="M100.7,2.1C100.7,2.1,100.7,2.1,100.7,2.1C100.7,2.1,100.7,2.1,100.7,2.1z"/>
		<path id="XMLID_275_" class="st66" d="M104.8,3.7C104.8,3.7,104.8,3.7,104.8,3.7C104.8,3.7,104.8,3.7,104.8,3.7z"/>
		<path id="XMLID_274_" class="st67" d="M100.7,3.8C100.7,3.8,100.7,3.8,100.7,3.8C100.7,3.8,100.7,3.8,100.7,3.8z"/>
		<path id="XMLID_273_" class="st68" d="M103.8,4.9C103.8,4.9,103.8,4.9,103.8,4.9C103.8,4.9,103.8,4.9,103.8,4.9z"/>
		<path id="XMLID_272_" class="st53" d="M103.6,5C103.6,5,103.6,5,103.6,5C103.6,5,103.6,5,103.6,5z"/>
		<path id="XMLID_271_" class="st69" d="M101.4,1.2C101.4,1.2,101.4,1.2,101.4,1.2C101.4,1.2,101.4,1.2,101.4,1.2z"/>
		<path id="XMLID_270_" class="st49" d="M116.5,6.9C116.5,6.9,116.5,6.9,116.5,6.9C116.5,6.9,116.5,6.9,116.5,6.9z"/>
		<path id="XMLID_269_" class="st70" d="M112.3,7.1C112.3,7.1,112.3,7.1,112.3,7.1C112.3,7.1,112.3,7.1,112.3,7.1z"/>
		<path id="XMLID_268_" class="st47" d="M117.1,7.2C117.1,7.2,117.1,7.2,117.1,7.2C117.1,7.2,117.1,7.2,117.1,7.2z"/>
		<path id="XMLID_267_" class="st46" d="M117.7,7.6C117.7,7.6,117.7,7.6,117.7,7.6C117.7,7.6,117.7,7.6,117.7,7.6z"/>
		<path id="XMLID_266_" class="st71" d="M118.8,9.6C118.8,9.6,118.8,9.6,118.8,9.6C118.8,9.5,118.8,9.6,118.8,9.6z"/>
		<path id="XMLID_265_" class="st16" d="M103.6,0.9C103.5,0.9,103.5,0.9,103.6,0.9C103.5,0.9,103.6,0.9,103.6,0.9z"/>
		<path id="XMLID_264_" class="st59" d="M112.1,10.2C112.1,10.2,112.1,10.2,112.1,10.2C112.1,10.2,112.1,10.2,112.1,10.2z"/>
		<path id="XMLID_263_" class="st30" d="M102,0.9C102,0.9,101.9,0.9,102,0.9C101.9,0.9,101.9,0.9,102,0.9z"/>
		<path id="XMLID_262_" class="st72" d="M112.4,7.1C112.4,7.1,112.4,7.1,112.4,7.1C112.4,7.1,112.4,7.1,112.4,7.1z"/>
		<path id="XMLID_261_" class="st36" d="M104.5,1.6C104.5,1.6,104.4,1.6,104.5,1.6C104.5,1.6,104.5,1.6,104.5,1.6z"/>
		<path id="XMLID_260_" class="st73" d="M118.1,8.1C118.1,8.1,118.1,8.1,118.1,8.1C118.1,8.1,118.1,8.1,118.1,8.1z"/>
		<path id="XMLID_259_" class="st63" d="M111,11.7C111,11.8,111,11.8,111,11.7C111,11.8,111,11.8,111,11.7
			C111,11.8,111,11.8,111,11.7C111,11.8,111,11.8,111,11.7L111,11.7L111,11.7C111,11.7,111,11.7,111,11.7z"/>
		<path id="XMLID_258_" class="st74" d="M104.5,4.3C104.4,4.3,104.5,4.3,104.5,4.3C104.5,4.3,104.5,4.3,104.5,4.3z"/>
		<path id="XMLID_257_" class="st75" d="M104.9,3.2C104.9,3.2,104.9,3.1,104.9,3.2C105,3.2,105,3.2,104.9,3.2z"/>
		<path id="XMLID_256_" class="st76" d="M115.2,12C115.1,12,115.1,11.9,115.2,12C115.2,11.9,115.2,12,115.2,12z"/>
		<path id="XMLID_255_" class="st77" d="M111,12.1C111,12.1,110.9,12.2,111,12.1C110.9,12.1,110.9,12.1,111,12.1z"/>
		<path id="XMLID_254_" class="st78" d="M111,11.7C111,11.7,111,11.7,111,11.7C111,11.7,111,11.7,111,11.7
			C111,11.7,111,11.7,111,11.7z"/>
	</g>
</g>
<g id="XMLID_3_">
	<path id="XMLID_151_" class="st2" d="M96.9,5c0.4,0,0.8-0.1,1.2-0.2c0.3-0.1,0.5-0.2,0.8-0.3c0,0,0,0,0,0c0,0,0,0,0,0
		c-0.5,0.7-1,1.2-1.7,1.8c0,0,0,0,0,0c-0.1,0-0.1,0.1-0.1,0.1c0,0.3,0,0.6,0,1c0,0.4-0.1,0.8-0.1,1.1c-0.1,0.6-0.3,1.3-0.5,1.9
		c-0.2,0.4-0.3,0.9-0.6,1.3c-0.4,0.8-0.9,1.6-1.6,2.3c-0.5,0.6-1.1,1.1-1.7,1.5c-0.7,0.5-1.4,0.8-2.1,1.1c-0.7,0.3-1.4,0.5-2.2,0.6
		c-0.5,0.1-1,0.1-1.5,0.1c-0.3,0-0.6,0-1,0c-0.5,0-0.9-0.1-1.4-0.2c-0.6-0.1-1.3-0.3-1.9-0.6c-0.5-0.2-1-0.5-1.5-0.8c0,0,0,0,0,0
		l0,0c0,0,0,0,0.1,0c0.2,0,0.5,0,0.7,0c0.8,0,1.6-0.1,2.4-0.4c0.7-0.2,1.4-0.6,2-1c0.1,0,0.1-0.1,0.2-0.2c-1-0.1-1.9-0.5-2.6-1.2
		c-0.4-0.4-0.7-0.9-0.8-1.4c0.5,0.1,1,0.1,1.5,0c0,0,0,0,0.1,0c0,0,0,0,0,0c0,0,0,0,0,0c0,0,0,0,0,0c0,0,0,0,0,0c0,0,0,0,0,0
		c0,0,0,0,0,0c0,0,0,0,0,0l0,0l0,0c0,0,0,0-0.1,0c-0.3-0.1-0.6-0.2-0.8-0.3c-0.6-0.3-1.1-0.8-1.5-1.5c-0.3-0.5-0.5-1.1-0.5-1.8
		c0,0,0-0.1,0-0.1c0,0,0.1,0,0.1,0c0.4,0.2,0.9,0.4,1.4,0.4c0.1,0,0.1,0,0.2,0c0,0,0,0-0.1,0c-0.5-0.4-0.9-0.8-1.2-1.4
		c-0.2-0.4-0.3-0.8-0.4-1.3c-0.1-0.5,0-1.1,0.2-1.6c0.1-0.2,0.2-0.4,0.3-0.6c0,0,0,0,0-0.1c0,0,0,0,0,0c0,0,0,0,0,0l0,0c0,0,0,0,0,0
		c2.1,2.6,5.1,3.7,7.6,3.9c0-0.1,0-0.1,0-0.2c-0.1-0.5-0.1-1.1,0-1.6c0.2-0.6,0.5-1.2,0.9-1.6c0.5-0.5,1.1-0.9,1.9-1
		c0.7-0.2,1.5-0.1,2.2,0.2c0.5,0.2,0.9,0.5,1.2,0.8c0.1,0.1,0.1,0.1,0.2,0c0.4-0.1,0.8-0.2,1.1-0.3C97.6,3.4,98,3.2,98.3,3
		c0,0,0,0,0.1,0c0,0.1,0,0.1-0.1,0.2C98,3.9,97.6,4.5,96.9,5c-0.1,0-0.1,0-0.1,0"/>
</g>
<g id="XMLID_4_">
	<path id="XMLID_19_" class="st2" d="M66.4,11.5c0-1,0-2,0-3c0-0.1,0-0.1,0-0.2c0-0.1,0-0.1-0.1-0.1c0,0-0.1,0-0.1,0
		c-0.5,0-0.9,0-1.4,0c-0.1,0-0.1,0-0.2,0c0,0,0,0,0,0c0,0,0-0.1,0-0.1c0-0.7,0-1.4,0-2.1c0-0.2,0-0.2,0.1-0.2
		c0.4-0.2,0.8-0.4,1.1-0.6c0.7-0.5,1.2-1.1,1.6-1.8c0.4-0.7,0.6-1.5,0.8-2.3c0-0.1,0-0.1,0-0.2c0-0.1,0.1-0.1,0.1-0.1
		c0,0,0.1,0,0.1,0c0.8,0,1.6,0,2.4,0c0,0,0.1,0,0.1,0c0.1,0,0.1,0,0.1,0.1c0,0.1,0,0.1,0,0.2c0,1.4,0,2.8,0,4.2c0,0,0,0.1,0,0.1
		c0,0.2,0,0.2,0.2,0.2c1.1,0,2.2,0,3.2,0c0,0,0.1,0,0.1,0c0.1,0,0.1,0,0.1,0.1c0,0.8,0,1.7,0,2.5c0,0,0,0,0,0.1c0,0.1,0,0.1-0.1,0.1
		c-0.1,0-0.1,0-0.2,0c-1.1,0-2.2,0-3.2,0c-0.1,0-0.1,0-0.2,0c0,0-0.1,0-0.1,0.1c0,0,0,0.1,0,0.1c0,1.8,0,3.6,0,5.4
		c0,0.3,0,0.5,0.1,0.8c0.1,0.2,0.1,0.4,0.2,0.6c0.3,0.4,0.6,0.6,1.1,0.6c0.6,0.1,1.2,0,1.8-0.2c0,0,0,0,0.1,0c0,0,0,0,0,0
		c0,0,0,0.1,0.1,0.1c0.2,0.7,0.4,1.3,0.7,2c0,0.1,0.1,0.2,0.1,0.3c0,0.1,0,0.2-0.1,0.2c-0.1,0.1-0.1,0.1-0.2,0.2
		c-0.3,0.2-0.6,0.3-0.9,0.4c-0.4,0.2-0.9,0.3-1.3,0.3c-0.4,0.1-0.8,0.1-1.2,0c-0.5,0-1-0.1-1.5-0.3c-1.1-0.3-1.9-0.9-2.6-1.8
		c-0.5-0.7-0.8-1.5-0.9-2.3c0-0.2,0-0.5,0-0.7C66.4,13.3,66.4,12.4,66.4,11.5z"/>
</g>
<g id="XMLID_5_">
	<path id="XMLID_21_" class="st2" d="M54.2,7.5c0,0.2,0,0.3-0.1,0.5c-0.1,0.5-0.1,1.1-0.2,1.6c0,0.4-0.1,0.7-0.1,1.1
		c0,0.1,0,0.1-0.1,0.1c-0.1,0-0.1,0-0.2,0c-0.8,0-1.6,0-2.4,0c0,0-0.1,0-0.1,0c-0.1,0-0.1,0-0.1,0.1c0,0.1,0,0.1,0,0.2
		c0,2.7,0,5.3,0,8c0,0.3,0,0.2-0.2,0.2c-1,0-2,0-3,0c-0.2,0-0.2,0-0.2-0.2c0,0,0-0.1,0-0.1c0-2.6,0-5.3,0-7.9c0-0.3,0-0.2-0.2-0.2
		c-0.8,0-1.6,0-2.4,0c-0.1,0-0.1,0-0.2,0c0,0-0.1,0-0.1-0.1c0,0,0-0.1,0-0.1c0-1,0-2,0-2.9c0,0,0,0,0,0c0-0.1,0-0.1,0.1-0.1
		c0.8,0,1.6,0,2.4,0c0.1,0,0.1,0,0.2,0c0.1,0,0.1,0,0.1-0.1c0-0.1,0-0.1,0-0.2c0-0.8,0-1.6,0-2.4c0-0.7,0.1-1.3,0.4-2
		C48.3,2,49,1.4,49.9,1.1c0.6-0.2,1.2-0.3,1.9-0.3c0.6,0,1.2,0,1.8,0c0.2,0,0.4,0,0.6,0.1c0.1,0,0.1,0,0.1,0.1c0,0,0,0.1,0,0.1
		c0,0.9,0,1.7,0,2.6c0,0,0,0.1,0,0.1c0,0.1,0,0.1-0.1,0.1c0,0-0.1,0-0.1,0c-0.5,0-1,0-1.5,0c-0.2,0-0.5,0-0.7,0.1
		c-0.3,0.1-0.5,0.2-0.7,0.5C51.1,4.5,51,4.7,51,4.9c0,0.2,0,0.3,0,0.5c0,0.7,0,1.4,0,2c0,0,0,0.1,0,0.1c0,0,0,0,0,0
		c0.1,0,0.1,0,0.2,0c0.9,0,1.9,0,2.8,0C54.1,7.5,54.1,7.5,54.2,7.5z"/>
</g>
<g id="XMLID_8_">
	<path id="XMLID_22_" class="st2" d="M19.1,6c0-0.5,0-1-0.2-1.5c-0.1-0.4-0.3-0.9-0.5-1.3c-0.6-1-1.5-1.7-2.7-2.1
		C15.2,1.1,14.7,1,14.1,1c-0.7,0-1.3-0.1-2-0.1c-0.6,0-1.2,0-1.8,0c-1.4,0-2.7,0-4.1,0.1C5.7,1,5.1,1,4.6,1.2
		c-0.7,0.2-1.3,0.5-1.8,1C2.3,2.6,1.9,3.1,1.7,3.6C1.3,4.3,1.2,5,1.1,5.7C1,6.2,1,6.7,1,7.2C1,8,1,8.8,1,9.6c0,1.4,0,2.7,0,4.1
		c0,0.6,0.1,1.1,0.2,1.7c0.2,0.8,0.6,1.6,1.2,2.2c0.4,0.4,0.8,0.7,1.4,1c0.6,0.3,1.3,0.4,2,0.5c0.4,0,0.7,0.1,1.1,0.1
		c0.7,0,1.3,0,2,0c1.2,0,2.4,0,3.6,0c0.6,0,1.3,0,1.9-0.1c0.6-0.1,1.2-0.2,1.8-0.4c0.9-0.4,1.6-1,2.1-1.8c0.5-0.7,0.7-1.5,0.8-2.3
		c0.1-0.6,0.1-1.4,0.1-2.1 M17.6,9.5C17.6,9.5,17.6,9.5,17.6,9.5c0,1,0,1.8,0,2.7c0,0.6,0,1.2-0.1,1.8c0,0.5-0.1,1-0.3,1.4
		c-0.3,0.8-0.9,1.3-1.6,1.6c-0.4,0.2-0.8,0.3-1.2,0.3c-0.5,0.1-1.1,0.1-1.6,0.1c-1.4,0-2.7,0-4.1,0c-0.6,0-1.2,0-1.7,0
		c-0.5,0-0.9,0-1.4-0.1c-0.5-0.1-1-0.2-1.4-0.5c-0.5-0.3-0.9-0.8-1.2-1.4c-0.2-0.4-0.3-0.9-0.3-1.4c-0.1-0.7-0.1-1.4-0.1-2.1
		c0-1.1,0-2.2,0-3.2c0-0.5,0-1.1,0-1.6c0-0.4,0-0.9,0.1-1.3c0.1-0.5,0.2-1,0.4-1.5c0.3-0.6,0.8-1,1.4-1.3c0.4-0.2,0.9-0.3,1.4-0.4
		c0.6-0.1,1.2-0.1,1.8-0.1c1.3,0,2.5,0,3.8,0c0.6,0,1.2,0,1.8,0c0.4,0,0.7,0,1.1,0.1c0.5,0.1,1,0.2,1.5,0.4c0.6,0.3,1,0.8,1.3,1.4
		c0.2,0.5,0.3,0.9,0.3,1.4c0.1,0.7,0.1,1.2,0.1,2C17.6,8.5,17.6,9.5,17.6,9.5z"/>
	<path id="XMLID_29_" class="st2" d="M10.3,5.3c-2.6-0.1-4.9,1.9-5,4.7c0,2.6,2,4.7,4.6,4.8c2.6,0.1,4.8-1.9,4.9-4.5
		C15,7.6,13,5.4,10.3,5.3z M10.2,13.1C8.4,13.1,7,11.7,7,10C7,8.4,8.3,7,10,6.9c1.7,0,3.1,1.3,3.2,3C13.2,11.7,11.9,13.1,10.2,13.1z
		"/>
	<path id="XMLID_30_" class="st2" d="M15.1,3.9c-0.6,0-1.1,0.5-1.1,1.1c0,0.6,0.5,1.1,1.1,1.1c0.6,0,1.1-0.5,1.1-1.1
		C16.2,4.4,15.7,4,15.1,3.9z"/>
</g>
<g id="XMLID_58_">
	<path id="XMLID_59_" class="st2" d="M25.8,19.3l-0.1-0.4c-0.5-2.7,0.2-5,0.8-7.3c0.2-0.8,0.4-1.5,0.6-2.3c-0.6-1.8-0.4-3.9,1.2-4.5
		c0.2-0.1,0.4-0.1,0.7-0.1c0.9,0,1.6,0.6,1.7,1.5c0.1,0.8-0.2,1.7-0.5,2.5c-0.3,0.7-0.5,1.4-0.5,2c0,0.6,0.5,1.2,1.5,1.2
		c0.1,0,0.2,0,0.3,0c0.5-0.1,0.7-0.3,0.9-0.5l0.1-0.1c1.1-1,1.7-2.8,1.6-4.8C34,4.4,32.4,3,30.1,3c-0.1,0-0.3,0-0.5,0
		c-2.2,0.2-3.9,1.7-4.3,3.8c-0.2,0.9,0,1.9,0.4,2.5c0,0,0.1,0.1,0.1,0.1c0.1,0.1,0.3,0.3,0.3,0.6c0.1,0.5-0.3,1.2-0.5,1.6l-0.1,0.2
		l-0.2,0c-2.2-0.6-2.8-3.1-2.5-5.1c0.5-3,2.9-5.3,6.1-5.7c0.4-0.1,0.9-0.1,1.3-0.1c4,0,6.9,2.6,7,6.2c0.1,3.3-1.7,6.9-5.1,7.3
		c-0.2,0-0.4,0-0.6,0c-1.1,0-1.8-0.4-2.5-0.9c-0.4,1.6-0.8,3.2-1.7,4.5c-0.1,0.1-0.1,0.2-0.2,0.3c-0.2,0.4-0.5,0.9-1,1.1L25.8,19.3z
		"/>
</g>
</svg>
