<?xml version="1.0" encoding="utf-8"?>
<!-- Generator: Adobe Illustrator 19.0.0, SVG Export Plug-In . SVG Version: 6.00 Build 0)  -->
<svg version="1.0" id="Layer_1" xmlns="http://www.w3.org/2000/svg" xmlns:xlink="http://www.w3.org/1999/xlink" x="0px" y="0px"
	 viewBox="0 0 20 20" style="enable-background:new 0 0 20 20;" xml:space="preserve">
<style type="text/css">
	.st0{filter:url(#Adobe_OpacityMaskFilter);}
	.st1{mask:url(#XMLID_235_);}
	.st2{fill:#1F1F1F;}
	.st3{fill:#BEBEBE;}
	.st4{fill:#B8B8B8;}
	.st5{fill:#C2C2C2;}
	.st6{fill:#626262;}
	.st7{fill:#3D3D3D;}
	.st8{fill:#D1D1D1;}
	.st9{fill:#A7A7A7;}
	.st10{fill:#BFBFBF;}
	.st11{fill:#E3E3E3;}
	.st12{fill:#B9B9B9;}
	.st13{fill:#6C6C6C;}
	.st14{fill:#C4C4C4;}
	.st15{fill:#7C7C7C;}
	.st16{fill:#767676;}
	.st17{fill:#424242;}
	.st18{fill:#484848;}
	.st19{fill:#DEDEDE;}
	.st20{fill:#A1A1A1;}
	.st21{fill:#606060;}
	.st22{fill:#C6C6C6;}
	.st23{fill:#D8D8D8;}
	.st24{fill:#828282;}
	.st25{fill:#BBBBBB;}
	.st26{fill:#5D5D5D;}
	.st27{fill:#D7D7D7;}
	.st28{fill:#707070;}
	.st29{fill:#AAAAAA;}
	.st30{fill:#DDDDDD;}
	.st31{fill:#B1B1B1;}
	.st32{fill:#585858;}
	.st33{fill:#9B9B9B;}
	.st34{fill:#8C8C8C;}
	.st35{fill:#8D8D8D;}
	.st36{fill:#7B7B7B;}
	.st37{fill:#5E5E5E;}
	.st38{fill:#C0C0C0;}
	.st39{fill:#535353;}
	.st40{fill:#C1C1C1;}
	.st41{fill:#8F8F8F;}
	.st42{fill:#868686;}
	.st43{fill:#E2E2E2;}
	.st44{fill:#646464;}
	.st45{fill:#A3A3A3;}
	.st46{fill:#818181;}
	.st47{fill:#565656;}
	.st48{fill:#C8C8C8;}
	.st49{fill:#797979;}
	.st50{fill:#8A8A8A;}
	.st51{fill:#A9A9A9;}
	.st52{fill:#595959;}
	.st53{fill:#858585;}
	.st54{fill:#777777;}
	.st55{fill:#434343;}
	.st56{fill:#C5C5C5;}
	.st57{fill:#D2D2D2;}
	.st58{fill:#B2B2B2;}
	.st59{fill:#8E8E8E;}
	.st60{fill:#B0B0B0;}
	.st61{fill:#919191;}
	.st62{fill:#757575;}
	.st63{fill:#737373;}
	.st64{fill:#ACACAC;}
	.st65{fill:#9F9F9F;}
	.st66{fill:#999999;}
	.st67{fill:#3C3C3C;}
	.st68{fill:#DFDFDF;}
	.st69{fill:#848484;}
	.st70{fill:#787878;}
	.st71{fill:#939393;}
	.st72{fill:#6D6D6D;}
	.st73{fill:#717171;}
	.st74{fill:#A2A2A2;}
	.st75{fill:#DCDCDC;}
	.st76{fill:#4C4C4C;}
	.st77{fill:#545454;}
	.st78{fill:#3F3F3F;}
</style>
<defs>
	<filter id="Adobe_OpacityMaskFilter" filterUnits="userSpaceOnUse" x="80.6" y="0.7" width="18.6" height="18.6">
		<feFlood  style="flood-color:white;flood-opacity:1" result="back"/>
		<feBlend  in="SourceGraphic" in2="back" mode="normal"/>
	</filter>
</defs>
<mask maskUnits="userSpaceOnUse" x="80.6" y="0.7" width="18.6" height="18.6" id="XMLID_235_">
	<g id="XMLID_1_" class="st0">
	</g>
</mask>
<g id="XMLID_6_" class="st1">
	<g id="XMLID_2_">
		<path id="XMLID_367_" class="st2" d="M95.2,11.4c0-0.1,0-0.1,0-0.2c0,0,0,0,0,0c0,0,0,0,0,0c0,0,0,0,0,0c0-0.1,0-0.1-0.1-0.2
			c0,0,0-0.1-0.1-0.1c0,0,0,0,0-0.1c-0.3-0.4-0.7-0.7-1.2-0.8c-0.1,0-0.1,0-0.2,0c-0.2,0-0.4,0-0.5,0c-0.1,0-0.1,0-0.2,0
			c-0.2,0-0.3,0.1-0.5,0.1c-0.1,0-0.1,0-0.2,0.1c0,0,0,0,0,0c-0.1,0-0.1,0.1-0.2,0.1c0,0-0.1,0-0.1,0.1c-0.1,0.1-0.1,0.1-0.2,0.2
			c0,0,0,0,0,0.1c0,0,0,0,0,0.1c-0.1,0.1-0.1,0.2-0.2,0.3c0,0,0,0,0,0.1c-0.1,0.1-0.1,0.3-0.2,0.4c0,0,0,0,0,0c0,0,0,0,0,0l0,0
			c0,0,0,0,0,0.1c0,0,0,0.1,0,0.1c0,0,0,0,0,0c0,0,0,0,0,0c0,0,0,0,0,0c0,0,0,0,0,0c0,0,0,0.1,0,0.1c0,0.1,0,0.1,0,0.2
			c0,0,0,0.1,0,0.1c0,0,0,0.1,0,0.1c0,0.1,0,0.1,0,0.2c0,2.3,0,4.5,0,6.8c0,0,0,0,0,0c-1.3,0-2.5,0-3.8,0c0,0-0.1,0-0.1-0.1
			c0-0.9,0-1.8,0-2.8c0-3.2,0-6.4,0-9.5c0,0,0,0,0,0c0,0,0-0.1,0.1-0.1c1.2,0,2.4,0,3.6,0c0.1,0,0.1,0,0.1,0.1c0,0.5,0,1.1,0,1.6
			c0,0,0,0.1,0,0.1c0,0,0.1,0,0.1,0c0.1-0.1,0.1-0.2,0.2-0.3c0,0,0,0,0-0.1c0,0,0.1-0.1,0.1-0.2c0,0,0.1-0.1,0.1-0.1
			c0,0,0,0,0.1-0.1c0-0.1,0.1-0.1,0.2-0.2c0,0,0,0,0.1,0c0,0,0,0,0.1-0.1c0,0,0,0,0,0c0.2-0.2,0.4-0.3,0.6-0.4c0,0,0,0,0,0
			c0,0,0,0,0,0c0,0,0,0,0,0l0,0c0,0,0,0,0.1,0c0,0,0,0,0,0c0,0,0.1,0,0.1,0l0,0c0,0,0,0,0,0c0,0,0,0,0,0c0,0,0,0,0.1,0
			c0,0,0.1,0,0.2-0.1c0,0,0,0,0,0c0,0,0.1,0,0.1,0c0.1,0,0.1,0,0.2-0.1c0.1,0,0.3-0.1,0.4-0.1c0,0,0,0,0.1,0c0,0,0,0,0.1,0
			c0,0,0.1,0,0.1,0c0,0,0,0,0.1,0c0,0,0,0,0,0c0,0,0.1,0,0.1,0c0,0,0,0,0.1,0c0.3,0,0.5,0,0.8,0c0.1,0,0.2,0,0.3,0c0,0,0.1,0,0.1,0
			c0,0,0,0,0,0c0,0,0,0,0.1,0c0,0,0.1,0,0.1,0c0,0,0,0,0,0c0,0,0,0,0,0c0,0,0.1,0,0.1,0c0,0,0,0,0,0c0,0,0.1,0,0.1,0c0,0,0,0,0,0
			c0.2,0,0.3,0.1,0.5,0.1c0,0,0.1,0,0.1,0c0,0,0,0,0,0c0,0,0,0,0,0c0,0,0,0,0,0c0.1,0,0.1,0,0.2,0.1c0.1,0,0.2,0.1,0.3,0.1
			c0,0,0,0,0,0c0,0,0,0,0,0c0.1,0,0.1,0.1,0.2,0.1c0,0,0,0,0.1,0l0,0c0,0,0.1,0,0.1,0.1c0,0,0.1,0.1,0.1,0.1c0,0,0,0,0.1,0
			c0,0,0,0,0,0c0,0,0,0,0,0c0,0,0,0,0,0l0,0c0,0,0,0,0,0C97.9,7.7,98,7.8,98,7.8c0,0,0,0,0.1,0.1c0,0.1,0.1,0.1,0.1,0.2c0,0,0,0,0,0
			l0,0c0,0,0,0.1,0.1,0.1c0.1,0.1,0.1,0.2,0.2,0.3c0,0,0,0.1,0.1,0.1c0.1,0.2,0.2,0.3,0.2,0.5c0,0.1,0.1,0.2,0.1,0.3c0,0,0,0,0,0
			c0,0,0,0.1,0,0.1c0,0,0,0,0,0c0,0,0,0,0,0c0,0.1,0,0.2,0.1,0.2c0,0.1,0,0.2,0.1,0.3c0,0,0,0,0,0.1c0,0.2,0.1,0.4,0.1,0.6
			c0,0,0,0.1,0,0.1c0,0,0,0,0,0c0,0,0,0.1,0,0.1c0,0.2,0,0.4,0,0.6c0,0.2,0,0.4,0,0.7c0,2.3,0,4.7,0,7c0,0.1,0,0.1-0.1,0.1
			c-1.3,0-2.5,0-3.8,0c-0.1,0-0.1,0-0.1-0.1c0-2,0-4,0-5.9c0-0.2,0-0.4,0-0.7c0,0,0,0,0-0.1c0,0,0,0,0-0.1c0-0.1,0-0.2,0-0.4
			c0-0.1,0-0.2,0-0.2c0,0,0-0.1,0-0.1C95.2,11.8,95.2,11.6,95.2,11.4C95.2,11.5,95.2,11.5,95.2,11.4C95.2,11.5,95.2,11.4,95.2,11.4z
			"/>
		<path id="XMLID_366_" class="st2" d="M84.8,13.1c0,2.1,0,4.1,0,6.2c0,0.1,0,0.1-0.1,0.1c-1.2,0-2.5,0-3.7,0c-0.1,0-0.1,0-0.1-0.1
			c0-4.1,0-8.2,0-12.3c0-0.1,0-0.1,0.1-0.1c1.2,0,2.5,0,3.7,0c0.1,0,0.1,0,0.1,0.1C84.8,9,84.8,11.1,84.8,13.1z"/>
		<path id="XMLID_365_" class="st2" d="M84.2,4.7c-0.1,0.1-0.2,0.1-0.3,0.2c0,0,0,0,0,0c-0.1,0-0.1,0.1-0.2,0.1c0,0,0,0,0,0
			c0,0,0,0,0,0c0,0,0,0,0,0c0,0-0.1,0-0.1,0c0,0-0.1,0-0.1,0c0,0,0,0,0,0c-0.1,0-0.2,0-0.2,0c-0.2,0-0.4,0-0.6,0c0,0-0.1,0-0.1,0
			c0,0-0.1,0-0.1,0c-0.1,0-0.1,0-0.2-0.1c0,0,0,0-0.1,0C82,5,82,5,81.9,5c0,0-0.1-0.1-0.1-0.1c0,0-0.1-0.1-0.1-0.1
			c-0.2-0.1-0.3-0.2-0.4-0.4c0,0,0,0,0,0C81,4.3,81,4.1,80.9,4c0-0.1-0.1-0.1-0.1-0.2c0,0,0,0,0,0c0,0,0,0,0-0.1c0,0,0-0.1,0-0.1
			c-0.1-0.3-0.1-0.6-0.1-0.9c0-0.1,0-0.3,0.1-0.4c0-0.1,0-0.1,0.1-0.2c0,0,0,0,0-0.1c0,0,0,0,0,0c0,0,0,0,0,0c0,0,0,0,0,0
			c0,0,0-0.1,0-0.1c0,0,0,0,0-0.1c0,0,0,0,0-0.1c0,0,0,0,0-0.1c0.1-0.2,0.2-0.3,0.4-0.4c0,0,0,0,0,0c0,0,0.1-0.1,0.1-0.1
			c0,0,0,0,0,0c0,0,0,0,0,0C81.7,1,81.9,1,82,0.9c0,0,0,0,0,0c0.1,0,0.1,0,0.2-0.1c0,0,0,0,0.1,0c0,0,0,0,0.1,0c0,0,0,0,0.1,0
			c0.3-0.1,0.5-0.1,0.8,0c0,0,0.1,0,0.1,0c0.1,0,0.1,0,0.2,0.1c0,0,0.1,0,0.1,0c0,0,0,0,0,0c0.1,0,0.1,0.1,0.2,0.1
			C83.9,1,84,1,84,1.1c0.1,0,0.1,0.1,0.2,0.1c0,0,0.1,0,0.1,0.1c0,0,0,0,0,0c0,0,0,0,0,0c0,0,0.1,0.1,0.1,0.1c0,0,0,0,0,0
			c0,0,0,0,0,0c0,0,0,0,0.1,0.1c0,0,0,0,0,0c0,0,0.1,0.1,0.1,0.1c0,0.1,0.1,0.1,0.1,0.2c0,0.1,0.1,0.2,0.1,0.2c0,0,0,0.1,0,0.1
			c0,0,0,0,0,0.1c0,0,0,0.1,0,0.1c0,0.2,0.1,0.4,0.1,0.6c0,0.1,0,0.1,0,0.2c0,0.1,0,0.2,0,0.2c0,0,0,0,0,0c0,0,0,0,0,0.1
			c0,0,0,0.1,0,0.1c0,0,0,0,0,0c0,0,0,0,0,0c0,0.1-0.1,0.1-0.1,0.2c0,0,0,0.1,0,0.1c0,0,0,0.1,0,0.1c0,0.1-0.1,0.1-0.1,0.2
			c0,0,0,0,0,0C84.5,4.4,84.4,4.6,84.2,4.7C84.3,4.7,84.2,4.7,84.2,4.7z"/>
		<path id="XMLID_364_" class="st3" d="M80.8,2.2c0,0.1,0,0.1,0,0.2c0,0.1-0.1,0.2-0.1,0.3c0,0.2,0,0.5,0,0.7c0,0.1,0,0.1,0,0.2
			c0,0,0,0,0,0c0-0.1-0.1-0.2-0.1-0.3c0-0.2,0-0.4,0-0.5c0-0.1,0-0.3,0.1-0.4C80.7,2.3,80.7,2.3,80.8,2.2
			C80.7,2.2,80.7,2.2,80.8,2.2z"/>
		<path id="XMLID_363_" class="st4" d="M95.3,12c0,0.2,0,0.4,0,0.6c0,0,0,0,0,0.1c0,0,0,0,0-0.1C95.3,12.4,95.3,12.2,95.3,12
			c0-0.1,0-0.2-0.1-0.3c0-0.1,0-0.1,0-0.2c0,0.1,0,0.1,0,0.2C95.2,11.8,95.2,11.8,95.3,12C95.3,11.9,95.3,12,95.3,12z"/>
		<path id="XMLID_362_" class="st5" d="M85,3.2c0-0.1,0-0.2,0-0.3c0-0.1,0-0.3,0-0.4c0-0.1,0-0.1,0-0.2c0,0,0,0,0,0
			c0.1,0.3,0.1,0.5,0.1,0.8C85.1,3.1,85.1,3.2,85,3.2C85,3.2,85.1,3.3,85,3.2c0,0.1,0,0.1,0,0.1C85,3.3,85,3.3,85,3.2z"/>
		<path id="XMLID_361_" class="st6" d="M82.5,5.1c0,0,0.1,0,0.1,0c0.2,0,0.3,0,0.5,0c0.1,0,0.2,0,0.3,0c0,0,0,0,0,0
			c-0.2,0.1-0.4,0.1-0.7,0c0,0,0,0-0.1,0C82.6,5.1,82.5,5.2,82.5,5.1C82.5,5.1,82.5,5.1,82.5,5.1C82.5,5.1,82.5,5.1,82.5,5.1
			C82.5,5.1,82.5,5.1,82.5,5.1z"/>
		<path id="XMLID_360_" class="st7" d="M99.1,10.8c0-0.1,0-0.1,0-0.2c0-0.1,0-0.2,0-0.2c0-0.1,0-0.1,0-0.2c0,0.1,0,0.2,0.1,0.3
			c0,0,0,0.1,0,0.1C99.1,10.6,99.1,10.7,99.1,10.8C99.2,10.7,99.2,10.7,99.1,10.8C99.2,10.8,99.2,10.8,99.1,10.8z"/>
		<path id="XMLID_359_" class="st8" d="M96.4,6.8c-0.1,0-0.1,0-0.2-0.1c-0.1,0-0.1,0-0.2,0c0,0,0,0,0,0c0.1,0,0.1,0,0.2,0
			C96.2,6.8,96.3,6.8,96.4,6.8C96.4,6.8,96.4,6.8,96.4,6.8z"/>
		<path id="XMLID_358_" class="st9" d="M91.1,12.1c0-0.1,0-0.1,0-0.2c0,0,0,0,0,0C91.1,12,91.1,12.1,91.1,12.1c0,0.1,0,0.2,0,0.2
			c0,0,0,0,0,0C91,12.3,91,12.2,91.1,12.1C91.1,12.2,91.1,12.1,91.1,12.1z"/>
		<path id="XMLID_357_" class="st10" d="M82,5c0.1,0,0.2,0,0.2,0.1c0,0,0,0,0,0c0,0,0,0,0,0C82.2,5.1,82.1,5.1,82,5z"/>
		<path id="XMLID_356_" class="st11" d="M84.8,1.9c0-0.1-0.1-0.1-0.1-0.2C84.8,1.8,84.8,1.9,84.8,1.9z"/>
		<path id="XMLID_355_" class="st12" d="M93.3,6.8c-0.1,0-0.1,0.1-0.2,0.1C93.2,6.8,93.3,6.8,93.3,6.8z"/>
		<path id="XMLID_354_" class="st13" d="M85,3.2c0,0,0,0.1,0,0.1c0,0,0,0.1,0,0.1C85,3.4,85,3.3,85,3.2z"/>
		<path id="XMLID_353_" class="st14" d="M94.2,6.6C94.2,6.6,94.2,6.6,94.2,6.6c-0.1,0-0.1,0-0.1,0C94.1,6.6,94.1,6.6,94.2,6.6
			C94.2,6.6,94.2,6.6,94.2,6.6z"/>
		<path id="XMLID_352_" class="st10" d="M82.5,5.1C82.5,5.1,82.5,5.1,82.5,5.1c-0.1,0-0.1,0-0.2,0c0,0,0.1,0,0.1,0
			C82.4,5.1,82.4,5.1,82.5,5.1z"/>
		<path id="XMLID_351_" class="st15" d="M91,12.3C91,12.3,91,12.3,91,12.3c0,0.1,0,0.2,0,0.2C91,12.4,91,12.4,91,12.3z"/>
		<path id="XMLID_350_" class="st16" d="M81.6,4.8c0.1,0,0.1,0,0.1,0.1C81.7,4.9,81.7,4.8,81.6,4.8z"/>
		<path id="XMLID_349_" class="st17" d="M93.6,10c0,0,0.1,0,0.1,0c0,0,0,0,0,0C93.7,10,93.6,10,93.6,10z"/>
		<path id="XMLID_348_" class="st18" d="M92.9,10C92.9,10,92.9,10,92.9,10c0.1,0,0.1,0,0.2,0C93,10,92.9,10,92.9,10z"/>
		<path id="XMLID_347_" class="st19" d="M80.7,3.6C80.7,3.6,80.7,3.6,80.7,3.6c0,0,0,0.1,0.1,0.1C80.7,3.7,80.7,3.6,80.7,3.6z"/>
		<path id="XMLID_346_" class="st5" d="M84,1.1c-0.1,0-0.1,0-0.1-0.1C83.9,1,84,1,84,1.1z"/>
		<path id="XMLID_345_" class="st20" d="M81.5,1.2C81.4,1.3,81.4,1.3,81.5,1.2C81.4,1.3,81.4,1.2,81.5,1.2z"/>
		<path id="XMLID_344_" class="st16" d="M94.9,10.8c0,0,0.1,0.1,0.1,0.1C95,10.9,95,10.9,94.9,10.8C94.9,10.8,94.9,10.8,94.9,10.8z"
			/>
		<path id="XMLID_343_" class="st21" d="M95.6,6.7C95.6,6.7,95.5,6.7,95.6,6.7C95.5,6.7,95.6,6.7,95.6,6.7
			C95.6,6.7,95.6,6.7,95.6,6.7z"/>
		<path id="XMLID_342_" class="st22" d="M99.2,11c0,0,0-0.1,0-0.1C99.2,10.9,99.2,11,99.2,11z"/>
		<path id="XMLID_341_" class="st21" d="M98.9,9.5c0,0,0-0.1,0-0.1C98.9,9.4,98.9,9.5,98.9,9.5z"/>
		<path id="XMLID_340_" class="st23" d="M99.1,10.6c0,0,0-0.1,0-0.1C99.2,10.5,99.1,10.6,99.1,10.6z"/>
		<path id="XMLID_339_" class="st24" d="M98.5,8.6c0,0-0.1-0.1-0.1-0.1C98.5,8.5,98.5,8.5,98.5,8.6z"/>
		<path id="XMLID_338_" class="st25" d="M94,6.7C94,6.7,93.9,6.7,94,6.7C93.9,6.6,94,6.6,94,6.7C94,6.6,94,6.6,94,6.7z"/>
		<path id="XMLID_337_" class="st26" d="M95.4,6.7C95.4,6.6,95.3,6.7,95.4,6.7C95.3,6.6,95.4,6.6,95.4,6.7
			C95.4,6.6,95.4,6.6,95.4,6.7z"/>
		<path id="XMLID_336_" class="st27" d="M95.9,6.7c0,0-0.1,0-0.1,0C95.9,6.7,95.9,6.7,95.9,6.7z"/>
		<path id="XMLID_335_" class="st28" d="M83.4,5.1c0,0,0.1,0,0.1,0C83.4,5.1,83.4,5.1,83.4,5.1z"/>
		<path id="XMLID_334_" class="st29" d="M98.1,7.9C98.1,7.9,98,7.9,98.1,7.9C98.1,7.8,98.1,7.9,98.1,7.9z"/>
		<path id="XMLID_333_" class="st10" d="M82.5,5.1C82.5,5.1,82.6,5.1,82.5,5.1C82.6,5.2,82.5,5.2,82.5,5.1z"/>
		<path id="XMLID_332_" class="st30" d="M95.8,6.7c0,0-0.1,0-0.1,0C95.7,6.7,95.8,6.7,95.8,6.7z"/>
		<path id="XMLID_331_" class="st9" d="M91.1,11.8C91.1,11.8,91.1,11.8,91.1,11.8C91.1,11.8,91.1,11.8,91.1,11.8
			C91.1,11.8,91.1,11.9,91.1,11.8C91.1,11.9,91.1,11.9,91.1,11.8z"/>
		<path id="XMLID_330_" class="st31" d="M84.8,4C84.8,4,84.8,4,84.8,4C84.8,4,84.8,4,84.8,4C84.8,4.1,84.8,4,84.8,4z"/>
		<path id="XMLID_329_" class="st32" d="M84.3,1.3C84.2,1.2,84.2,1.2,84.3,1.3C84.2,1.2,84.3,1.2,84.3,1.3z"/>
		<path id="XMLID_328_" class="st33" d="M99.1,10.8C99.1,10.8,99.2,10.8,99.1,10.8C99.2,10.7,99.2,10.7,99.1,10.8
			C99.2,10.8,99.2,10.8,99.1,10.8C99.2,10.8,99.2,10.8,99.1,10.8z"/>
		<path id="XMLID_327_" class="st34" d="M91.9,10.4C91.9,10.3,92,10.3,91.9,10.4C92,10.3,92,10.3,91.9,10.4z"/>
		<path id="XMLID_326_" class="st35" d="M97.5,7.4C97.5,7.4,97.4,7.3,97.5,7.4C97.5,7.3,97.5,7.3,97.5,7.4z"/>
		<path id="XMLID_325_" class="st28" d="M91.5,7.9C91.5,7.9,91.5,7.9,91.5,7.9C91.4,7.9,91.5,7.9,91.5,7.9z"/>
		<path id="XMLID_324_" class="st35" d="M92.7,7C92.7,7,92.6,7,92.7,7C92.6,7,92.7,7,92.7,7z"/>
		<path id="XMLID_323_" class="st36" d="M93.8,6.7C93.8,6.7,93.8,6.7,93.8,6.7C93.8,6.6,93.8,6.7,93.8,6.7z"/>
		<path id="XMLID_322_" class="st37" d="M83.3,0.8C83.3,0.8,83.3,0.8,83.3,0.8C83.3,0.8,83.3,0.8,83.3,0.8z"/>
		<path id="XMLID_321_" class="st6" d="M98.3,8.2C98.3,8.2,98.2,8.1,98.3,8.2C98.3,8.1,98.3,8.1,98.3,8.2z"/>
		<path id="XMLID_320_" class="st18" d="M84.8,4C84.8,4,84.8,4.1,84.8,4C84.7,4.1,84.7,4.1,84.8,4C84.7,4.1,84.7,4.1,84.8,4z"/>
		<path id="XMLID_319_" class="st38" d="M91.2,8.2C91.2,8.2,91.2,8.3,91.2,8.2C91.1,8.3,91.1,8.2,91.2,8.2z"/>
		<path id="XMLID_318_" class="st39" d="M91.6,10.6C91.7,10.6,91.7,10.6,91.6,10.6C91.7,10.6,91.7,10.6,91.6,10.6
			C91.7,10.6,91.6,10.6,91.6,10.6z"/>
		<path id="XMLID_317_" class="st3" d="M91.6,10.6C91.6,10.6,91.7,10.6,91.6,10.6C91.6,10.6,91.6,10.7,91.6,10.6
			C91.6,10.6,91.6,10.6,91.6,10.6z"/>
		<path id="XMLID_316_" class="st40" d="M81,1.7C81,1.8,81,1.8,81,1.7C80.9,1.8,80.9,1.8,81,1.7C80.9,1.8,81,1.8,81,1.7z"/>
		<path id="XMLID_315_" class="st41" d="M82.4,0.8C82.4,0.8,82.4,0.8,82.4,0.8C82.4,0.8,82.4,0.8,82.4,0.8
			C82.4,0.8,82.4,0.8,82.4,0.8z"/>
		<path id="XMLID_314_" class="st20" d="M80.9,1.9C80.9,1.9,80.9,1.9,80.9,1.9C80.9,1.9,80.9,1.9,80.9,1.9
			C80.9,1.9,80.9,1.9,80.9,1.9z"/>
		<path id="XMLID_313_" class="st42" d="M91.2,11.6C91.2,11.5,91.2,11.5,91.2,11.6C91.2,11.5,91.2,11.5,91.2,11.6z"/>
		<path id="XMLID_312_" class="st43" d="M80.9,1.9C80.9,1.9,80.9,1.9,80.9,1.9C80.9,1.8,80.9,1.8,80.9,1.9
			C80.9,1.8,80.9,1.8,80.9,1.9C80.9,1.8,80.9,1.9,80.9,1.9z"/>
		<path id="XMLID_311_" class="st44" d="M91.8,7.5C91.8,7.6,91.8,7.6,91.8,7.5C91.8,7.6,91.8,7.6,91.8,7.5z"/>
		<path id="XMLID_310_" class="st45" d="M94.9,10.8C94.9,10.8,94.9,10.8,94.9,10.8C94.9,10.8,94.9,10.8,94.9,10.8
			C94.9,10.8,94.9,10.8,94.9,10.8z"/>
		<path id="XMLID_309_" class="st46" d="M97.7,7.5C97.7,7.5,97.7,7.5,97.7,7.5C97.7,7.5,97.7,7.5,97.7,7.5z"/>
		<path id="XMLID_308_" class="st47" d="M82.4,5.1C82.3,5.1,82.3,5.1,82.4,5.1C82.3,5.1,82.3,5.1,82.4,5.1
			C82.3,5.1,82.3,5.1,82.4,5.1C82.3,5.1,82.3,5.1,82.4,5.1z"/>
		<path id="XMLID_307_" class="st48" d="M95.2,11.4C95.2,11.4,95.2,11.4,95.2,11.4C95.1,11.5,95.2,11.4,95.2,11.4z"/>
		<path id="XMLID_306_" class="st49" d="M91.7,7.6C91.7,7.7,91.7,7.7,91.7,7.6C91.7,7.7,91.7,7.7,91.7,7.6z"/>
		<path id="XMLID_305_" class="st50" d="M92.6,7.1C92.5,7.1,92.5,7.1,92.6,7.1C92.5,7.1,92.5,7.1,92.6,7.1z"/>
		<path id="XMLID_304_" class="st51" d="M84.3,1.3C84.3,1.3,84.3,1.3,84.3,1.3C84.3,1.3,84.3,1.3,84.3,1.3z"/>
		<path id="XMLID_303_" class="st52" d="M85,3.5C85,3.5,85,3.5,85,3.5C85,3.5,85,3.5,85,3.5z"/>
		<path id="XMLID_302_" class="st53" d="M81.1,4.4C81.2,4.4,81.2,4.4,81.1,4.4C81.1,4.4,81.1,4.4,81.1,4.4z"/>
		<path id="XMLID_301_" class="st54" d="M84.2,4.7C84.2,4.7,84.3,4.6,84.2,4.7C84.3,4.7,84.2,4.7,84.2,4.7z"/>
		<path id="XMLID_300_" class="st37" d="M83.6,5C83.6,5,83.6,5,83.6,5C83.7,5,83.6,5,83.6,5z"/>
		<path id="XMLID_299_" class="st55" d="M82.4,0.8C82.4,0.8,82.4,0.8,82.4,0.8C82.4,0.8,82.4,0.8,82.4,0.8
			C82.4,0.8,82.4,0.8,82.4,0.8z"/>
		<path id="XMLID_298_" class="st56" d="M99.2,10.7C99.2,10.7,99.2,10.7,99.2,10.7C99.2,10.7,99.2,10.7,99.2,10.7
			C99.2,10.7,99.2,10.7,99.2,10.7z"/>
		<path id="XMLID_297_" class="st53" d="M91.4,11C91.4,11,91.4,10.9,91.4,11C91.4,11,91.4,11,91.4,11z"/>
		<path id="XMLID_296_" class="st57" d="M95.6,6.7C95.6,6.7,95.6,6.7,95.6,6.7C95.6,6.7,95.7,6.6,95.6,6.7
			C95.6,6.7,95.6,6.7,95.6,6.7z"/>
		<path id="XMLID_295_" class="st5" d="M95.4,6.7C95.4,6.6,95.4,6.6,95.4,6.7C95.4,6.6,95.4,6.6,95.4,6.7
			C95.4,6.7,95.4,6.7,95.4,6.7z"/>
		<path id="XMLID_294_" class="st58" d="M93,6.9C93,6.9,93,6.9,93,6.9C93,6.9,93,6.9,93,6.9z"/>
		<path id="XMLID_293_" class="st59" d="M97.4,7.3C97.4,7.3,97.4,7.3,97.4,7.3C97.4,7.3,97.4,7.3,97.4,7.3z"/>
		<path id="XMLID_292_" class="st47" d="M94,6.7C94,6.6,94,6.6,94,6.7C94,6.6,94,6.6,94,6.7C94,6.7,94,6.7,94,6.7z"/>
		<path id="XMLID_291_" class="st54" d="M96.6,6.9C96.6,6.9,96.6,6.9,96.6,6.9C96.6,6.9,96.6,6.9,96.6,6.9z"/>
		<path id="XMLID_290_" class="st60" d="M91.2,11.5C91.2,11.5,91.2,11.5,91.2,11.5C91.2,11.5,91.2,11.5,91.2,11.5z"/>
		<path id="XMLID_289_" class="st45" d="M95.1,11.2C95.1,11.2,95.1,11.2,95.1,11.2C95.1,11.2,95.1,11.2,95.1,11.2z"/>
		<path id="XMLID_288_" class="st61" d="M85,2.3C85,2.3,85,2.3,85,2.3C84.9,2.3,85,2.3,85,2.3C85,2.3,85,2.3,85,2.3z"/>
		<path id="XMLID_287_" class="st62" d="M92.8,7C92.8,7,92.8,7,92.8,7C92.8,6.9,92.8,6.9,92.8,7z"/>
		<path id="XMLID_286_" class="st51" d="M92.7,7C92.7,7,92.7,7,92.7,7C92.7,7,92.7,7,92.7,7z"/>
		<path id="XMLID_285_" class="st63" d="M91.1,11.8C91.1,11.9,91.1,11.9,91.1,11.8C91.1,11.9,91.1,11.9,91.1,11.8
			C91.1,11.9,91.1,11.9,91.1,11.8C91.1,11.9,91.1,11.9,91.1,11.8z"/>
		<path id="XMLID_284_" class="st12" d="M91.1,11.7C91.1,11.7,91.2,11.8,91.1,11.7C91.1,11.8,91.1,11.8,91.1,11.7
			C91.1,11.7,91.1,11.7,91.1,11.7z"/>
		<path id="XMLID_283_" class="st63" d="M91.1,11.7C91.1,11.7,91.1,11.7,91.1,11.7C91.1,11.7,91.1,11.7,91.1,11.7
			C91.1,11.7,91.1,11.7,91.1,11.7C91.1,11.7,91.1,11.7,91.1,11.7C91.1,11.7,91.1,11.7,91.1,11.7z"/>
		<path id="XMLID_282_" class="st46" d="M84.5,1.5C84.5,1.5,84.4,1.4,84.5,1.5C84.5,1.4,84.5,1.4,84.5,1.5
			C84.5,1.5,84.5,1.5,84.5,1.5z"/>
		<path id="XMLID_281_" class="st51" d="M84.5,1.5C84.5,1.5,84.5,1.5,84.5,1.5C84.5,1.5,84.5,1.5,84.5,1.5
			C84.5,1.5,84.5,1.5,84.5,1.5z"/>
		<path id="XMLID_280_" class="st64" d="M97.8,7.6C97.8,7.6,97.7,7.6,97.8,7.6C97.8,7.5,97.8,7.6,97.8,7.6
			C97.8,7.6,97.8,7.6,97.8,7.6z"/>
		<path id="XMLID_279_" class="st20" d="M97.8,7.6C97.8,7.6,97.8,7.6,97.8,7.6C97.8,7.6,97.8,7.6,97.8,7.6
			C97.8,7.6,97.8,7.6,97.8,7.6z"/>
		<path id="XMLID_278_" class="st65" d="M95.1,11.1C95.1,11.1,95.1,11.1,95.1,11.1C95.1,11.2,95.1,11.1,95.1,11.1z"/>
		<path id="XMLID_277_" class="st47" d="M80.8,2C80.8,2.1,80.8,2.1,80.8,2C80.8,2.1,80.8,2,80.8,2z"/>
		<path id="XMLID_276_" class="st62" d="M80.8,2.1C80.8,2.1,80.8,2.1,80.8,2.1C80.8,2.1,80.8,2.1,80.8,2.1z"/>
		<path id="XMLID_275_" class="st66" d="M84.9,3.7C84.9,3.7,84.9,3.7,84.9,3.7C84.9,3.7,84.9,3.7,84.9,3.7z"/>
		<path id="XMLID_274_" class="st67" d="M80.8,3.8C80.8,3.8,80.8,3.8,80.8,3.8C80.8,3.8,80.8,3.8,80.8,3.8z"/>
		<path id="XMLID_273_" class="st68" d="M83.9,4.9C83.9,4.9,83.9,4.9,83.9,4.9C83.9,4.9,83.9,4.9,83.9,4.9z"/>
		<path id="XMLID_272_" class="st53" d="M83.7,5C83.7,5,83.7,5,83.7,5C83.7,5,83.7,5,83.7,5z"/>
		<path id="XMLID_271_" class="st69" d="M81.5,1.2C81.5,1.2,81.5,1.2,81.5,1.2C81.5,1.2,81.5,1.2,81.5,1.2z"/>
		<path id="XMLID_270_" class="st49" d="M96.7,6.9C96.6,6.9,96.6,6.9,96.7,6.9C96.6,6.9,96.6,6.9,96.7,6.9z"/>
		<path id="XMLID_269_" class="st70" d="M92.5,7.1C92.5,7.1,92.4,7.1,92.5,7.1C92.4,7.1,92.4,7.1,92.5,7.1z"/>
		<path id="XMLID_268_" class="st47" d="M97.2,7.2C97.2,7.2,97.2,7.2,97.2,7.2C97.2,7.2,97.2,7.2,97.2,7.2z"/>
		<path id="XMLID_267_" class="st46" d="M97.8,7.6C97.8,7.6,97.8,7.6,97.8,7.6C97.8,7.6,97.8,7.6,97.8,7.6z"/>
		<path id="XMLID_266_" class="st71" d="M98.9,9.6C98.9,9.6,98.9,9.6,98.9,9.6C98.9,9.5,98.9,9.6,98.9,9.6z"/>
		<path id="XMLID_265_" class="st16" d="M83.7,0.9C83.7,0.9,83.6,0.9,83.7,0.9C83.7,0.9,83.7,0.9,83.7,0.9z"/>
		<path id="XMLID_264_" class="st59" d="M92.2,10.2C92.2,10.2,92.2,10.2,92.2,10.2C92.2,10.2,92.2,10.2,92.2,10.2z"/>
		<path id="XMLID_263_" class="st30" d="M82.1,0.9C82.1,0.9,82.1,0.9,82.1,0.9C82.1,0.9,82.1,0.9,82.1,0.9z"/>
		<path id="XMLID_262_" class="st72" d="M92.5,7.1C92.5,7.1,92.5,7.1,92.5,7.1C92.5,7.1,92.5,7.1,92.5,7.1z"/>
		<path id="XMLID_261_" class="st36" d="M84.6,1.6C84.6,1.6,84.6,1.6,84.6,1.6C84.6,1.6,84.6,1.6,84.6,1.6z"/>
		<path id="XMLID_260_" class="st73" d="M98.2,8.1C98.2,8.1,98.2,8.1,98.2,8.1C98.2,8.1,98.2,8.1,98.2,8.1z"/>
		<path id="XMLID_259_" class="st63" d="M91.1,11.7C91.1,11.8,91.1,11.8,91.1,11.7C91.1,11.8,91.1,11.8,91.1,11.7
			C91.1,11.8,91.1,11.8,91.1,11.7C91.1,11.8,91.1,11.8,91.1,11.7L91.1,11.7L91.1,11.7C91.1,11.7,91.1,11.7,91.1,11.7z"/>
		<path id="XMLID_258_" class="st74" d="M84.6,4.3C84.6,4.3,84.6,4.3,84.6,4.3C84.6,4.3,84.6,4.3,84.6,4.3z"/>
		<path id="XMLID_257_" class="st75" d="M85.1,3.2C85.1,3.2,85.1,3.1,85.1,3.2C85.1,3.2,85.1,3.2,85.1,3.2z"/>
		<path id="XMLID_256_" class="st76" d="M95.3,12C95.3,12,95.2,11.9,95.3,12C95.3,11.9,95.3,12,95.3,12z"/>
		<path id="XMLID_255_" class="st77" d="M91.1,12.1C91.1,12.1,91.1,12.2,91.1,12.1C91.1,12.1,91,12.1,91.1,12.1z"/>
		<path id="XMLID_254_" class="st78" d="M91.1,11.7C91.1,11.7,91.1,11.7,91.1,11.7C91.1,11.7,91.1,11.7,91.1,11.7
			C91.1,11.7,91.1,11.7,91.1,11.7z"/>
	</g>
</g>
<g id="XMLID_3_">
	<path id="XMLID_151_" class="st2" d="M77,5c0.4,0,0.8-0.1,1.2-0.2c0.3-0.1,0.5-0.2,0.8-0.3c0,0,0,0,0,0c0,0,0,0,0,0
		c-0.5,0.7-1,1.2-1.7,1.8c0,0,0,0,0,0c-0.1,0-0.1,0.1-0.1,0.1c0,0.3,0,0.6,0,1c0,0.4-0.1,0.8-0.1,1.1c-0.1,0.6-0.3,1.3-0.5,1.9
		c-0.2,0.4-0.3,0.9-0.6,1.3c-0.4,0.8-0.9,1.6-1.6,2.3c-0.5,0.6-1.1,1.1-1.7,1.5c-0.7,0.5-1.4,0.8-2.1,1.1c-0.7,0.3-1.4,0.5-2.2,0.6
		c-0.5,0.1-1,0.1-1.5,0.1c-0.3,0-0.6,0-1,0c-0.5,0-0.9-0.1-1.4-0.2c-0.6-0.1-1.3-0.3-1.9-0.6c-0.5-0.2-1-0.5-1.5-0.8c0,0,0,0,0,0
		l0,0c0,0,0,0,0.1,0c0.2,0,0.5,0,0.7,0c0.8,0,1.6-0.1,2.4-0.4c0.7-0.2,1.4-0.6,2-1c0.1,0,0.1-0.1,0.2-0.2c-1-0.1-1.9-0.5-2.6-1.2
		c-0.4-0.4-0.7-0.9-0.8-1.4c0.5,0.1,1,0.1,1.5,0c0,0,0,0,0.1,0c0,0,0,0,0,0c0,0,0,0,0,0c0,0,0,0,0,0c0,0,0,0,0,0c0,0,0,0,0,0
		c0,0,0,0,0,0c0,0,0,0,0,0l0,0l0,0c0,0,0,0-0.1,0c-0.3-0.1-0.6-0.2-0.8-0.3c-0.6-0.3-1.1-0.8-1.5-1.5c-0.3-0.5-0.5-1.1-0.5-1.8
		c0,0,0-0.1,0-0.1c0,0,0.1,0,0.1,0c0.4,0.2,0.9,0.4,1.4,0.4c0.1,0,0.1,0,0.2,0c0,0,0,0-0.1,0c-0.5-0.4-0.9-0.8-1.2-1.4
		c-0.2-0.4-0.3-0.8-0.4-1.3c-0.1-0.5,0-1.1,0.2-1.6c0.1-0.2,0.2-0.4,0.3-0.6c0,0,0,0,0-0.1c0,0,0,0,0,0c0,0,0,0,0,0l0,0c0,0,0,0,0,0
		c2.1,2.6,5.1,3.7,7.6,3.9c0-0.1,0-0.1,0-0.2c-0.1-0.5-0.1-1.1,0-1.6c0.2-0.6,0.5-1.2,0.9-1.6c0.5-0.5,1.1-0.9,1.9-1
		c0.7-0.2,1.5-0.1,2.2,0.2c0.5,0.2,0.9,0.5,1.2,0.8c0.1,0.1,0.1,0.1,0.2,0c0.4-0.1,0.8-0.2,1.1-0.3c0.4-0.1,0.7-0.3,1.1-0.5
		c0,0,0,0,0.1,0c0,0.1,0,0.1-0.1,0.2C78.2,3.9,77.7,4.5,77,5c-0.1,0-0.1,0-0.1,0"/>
</g>
<g id="XMLID_4_">
	<path id="XMLID_19_" class="st2" d="M46.5,11.5c0-1,0-2,0-3c0-0.1,0-0.1,0-0.2c0-0.1,0-0.1-0.1-0.1c0,0-0.1,0-0.1,0
		c-0.5,0-0.9,0-1.4,0c-0.1,0-0.1,0-0.2,0c0,0,0,0,0,0c0,0,0-0.1,0-0.1c0-0.7,0-1.4,0-2.1c0-0.2,0-0.2,0.1-0.2
		c0.4-0.2,0.8-0.4,1.1-0.6c0.7-0.5,1.2-1.1,1.6-1.8c0.4-0.7,0.6-1.5,0.8-2.3c0-0.1,0-0.1,0-0.2c0-0.1,0.1-0.1,0.1-0.1
		c0,0,0.1,0,0.1,0c0.8,0,1.6,0,2.4,0c0,0,0.1,0,0.1,0c0.1,0,0.1,0,0.1,0.1c0,0.1,0,0.1,0,0.2c0,1.4,0,2.8,0,4.2c0,0,0,0.1,0,0.1
		c0,0.2,0,0.2,0.2,0.2c1.1,0,2.2,0,3.2,0c0,0,0.1,0,0.1,0c0.1,0,0.1,0,0.1,0.1c0,0.8,0,1.7,0,2.5c0,0,0,0,0,0.1c0,0.1,0,0.1-0.1,0.1
		c-0.1,0-0.1,0-0.2,0c-1.1,0-2.2,0-3.2,0c-0.1,0-0.1,0-0.2,0c0,0-0.1,0-0.1,0.1c0,0,0,0.1,0,0.1c0,1.8,0,3.6,0,5.4
		c0,0.3,0,0.5,0.1,0.8c0.1,0.2,0.1,0.4,0.2,0.6c0.3,0.4,0.6,0.6,1.1,0.6c0.6,0.1,1.2,0,1.8-0.2c0,0,0,0,0.1,0c0,0,0,0,0,0
		c0,0,0,0.1,0.1,0.1c0.2,0.7,0.4,1.3,0.7,2c0,0.1,0.1,0.2,0.1,0.3c0,0.1,0,0.2-0.1,0.2c-0.1,0.1-0.1,0.1-0.2,0.2
		c-0.3,0.2-0.6,0.3-0.9,0.4c-0.4,0.2-0.9,0.3-1.3,0.3c-0.4,0.1-0.8,0.1-1.2,0c-0.5,0-1-0.1-1.5-0.3c-1.1-0.3-1.9-0.9-2.6-1.8
		c-0.5-0.7-0.8-1.5-0.9-2.3c0-0.2,0-0.5,0-0.7C46.5,13.3,46.5,12.4,46.5,11.5z"/>
</g>
<g id="XMLID_5_">
	<path id="XMLID_21_" class="st2" d="M34.3,7.5c0,0.2,0,0.3-0.1,0.5c-0.1,0.5-0.1,1.1-0.2,1.6c0,0.4-0.1,0.7-0.1,1.1
		c0,0.1,0,0.1-0.1,0.1c-0.1,0-0.1,0-0.2,0c-0.8,0-1.6,0-2.4,0c0,0-0.1,0-0.1,0c-0.1,0-0.1,0-0.1,0.1c0,0.1,0,0.1,0,0.2
		c0,2.7,0,5.3,0,8c0,0.3,0,0.2-0.2,0.2c-1,0-2,0-3,0c-0.2,0-0.2,0-0.2-0.2c0,0,0-0.1,0-0.1c0-2.6,0-5.3,0-7.9c0-0.3,0-0.2-0.2-0.2
		c-0.8,0-1.6,0-2.4,0c-0.1,0-0.1,0-0.2,0c0,0-0.1,0-0.1-0.1c0,0,0-0.1,0-0.1c0-1,0-2,0-2.9c0,0,0,0,0,0c0-0.1,0-0.1,0.1-0.1
		c0.8,0,1.6,0,2.4,0c0.1,0,0.1,0,0.2,0c0.1,0,0.1,0,0.1-0.1c0-0.1,0-0.1,0-0.2c0-0.8,0-1.6,0-2.4c0-0.7,0.1-1.3,0.4-2
		C28.4,2,29.1,1.4,30,1.1c0.6-0.2,1.2-0.3,1.9-0.3c0.6,0,1.2,0,1.8,0c0.2,0,0.4,0,0.6,0.1c0.1,0,0.1,0,0.1,0.1c0,0,0,0.1,0,0.1
		c0,0.9,0,1.7,0,2.6c0,0,0,0.1,0,0.1c0,0.1,0,0.1-0.1,0.1c0,0-0.1,0-0.1,0c-0.5,0-1,0-1.5,0c-0.2,0-0.5,0-0.7,0.1
		c-0.3,0.1-0.5,0.2-0.7,0.5c-0.1,0.2-0.2,0.3-0.2,0.5c0,0.2,0,0.3,0,0.5c0,0.7,0,1.4,0,2c0,0,0,0.1,0,0.1c0,0,0,0,0,0
		c0.1,0,0.1,0,0.2,0c0.9,0,1.9,0,2.8,0C34.2,7.5,34.2,7.5,34.3,7.5z"/>
</g>
<g id="XMLID_8_">
	<path id="XMLID_22_" class="st2" d="M-0.8,6c0-0.5,0-1-0.2-1.5c-0.1-0.4-0.3-0.9-0.5-1.3c-0.6-1-1.5-1.7-2.7-2.1
		C-4.7,1.1-5.2,1-5.8,1c-0.7,0-1.3-0.1-2-0.1c-0.6,0-1.2,0-1.8,0c-1.4,0-2.7,0-4.1,0.1c-0.6,0-1.1,0.1-1.7,0.3
		c-0.7,0.2-1.3,0.5-1.8,1c-0.5,0.4-0.8,0.9-1.1,1.4c-0.3,0.7-0.5,1.4-0.6,2.1c0,0.5-0.1,1-0.1,1.5c0,0.8,0,1.6,0,2.4
		c0,1.4,0,2.7,0,4.1c0,0.6,0.1,1.1,0.2,1.7c0.2,0.8,0.6,1.6,1.2,2.2c0.4,0.4,0.8,0.7,1.4,1c0.6,0.3,1.3,0.4,2,0.5
		c0.4,0,0.7,0.1,1.1,0.1c0.7,0,1.3,0,2,0c1.2,0,2.4,0,3.6,0c0.6,0,1.3,0,1.9-0.1c0.6-0.1,1.2-0.2,1.8-0.4c0.9-0.4,1.6-1,2.1-1.8
		c0.5-0.7,0.7-1.5,0.8-2.3c0.1-0.6,0.1-1.4,0.1-2.1 M-2.3,9.5C-2.3,9.5-2.3,9.5-2.3,9.5c0,1,0,1.8,0,2.7c0,0.6,0,1.2-0.1,1.8
		c0,0.5-0.1,1-0.3,1.4c-0.3,0.8-0.9,1.3-1.6,1.6c-0.4,0.2-0.8,0.3-1.2,0.3c-0.5,0.1-1.1,0.1-1.6,0.1c-1.4,0-2.7,0-4.1,0
		c-0.6,0-1.2,0-1.7,0c-0.5,0-0.9,0-1.4-0.1c-0.5-0.1-1-0.2-1.4-0.5c-0.5-0.3-0.9-0.8-1.2-1.4c-0.2-0.4-0.3-0.9-0.3-1.4
		c-0.1-0.7-0.1-1.4-0.1-2.1c0-1.1,0-2.2,0-3.2c0-0.5,0-1.1,0-1.6c0-0.4,0-0.9,0.1-1.3c0.1-0.5,0.2-1,0.4-1.5c0.3-0.6,0.8-1,1.4-1.3
		c0.4-0.2,0.9-0.3,1.4-0.4c0.6-0.1,1.2-0.1,1.8-0.1c1.3,0,2.5,0,3.8,0c0.6,0,1.2,0,1.8,0c0.4,0,0.7,0,1.1,0.1C-5,2.7-4.5,2.8-4,3.1
		c0.6,0.3,1,0.8,1.3,1.4C-2.5,5-2.4,5.4-2.4,5.9c0.1,0.7,0.1,1.2,0.1,2C-2.3,8.5-2.3,9.5-2.3,9.5z"/>
	<path id="XMLID_29_" class="st2" d="M-9.5,5.3c-2.6-0.1-4.9,1.9-5,4.7c0,2.6,2,4.7,4.6,4.8c2.6,0.1,4.8-1.9,4.9-4.5
		C-4.9,7.6-6.9,5.4-9.5,5.3z M-9.7,13.1c-1.7,0-3.1-1.4-3.1-3.1c0-1.7,1.3-3.1,3-3.1c1.7,0,3.1,1.3,3.2,3C-6.7,11.7-8,13.1-9.7,13.1
		z"/>
	<path id="XMLID_30_" class="st2" d="M-4.8,3.9c-0.6,0-1.1,0.5-1.1,1.1c0,0.6,0.5,1.1,1.1,1.1c0.6,0,1.1-0.5,1.1-1.1
		C-3.7,4.4-4.2,4-4.8,3.9z"/>
</g>
<g id="XMLID_58_">
	<path id="XMLID_59_" class="st2" d="M5.9,19.3l-0.1-0.4c-0.5-2.7,0.2-5,0.8-7.3c0.2-0.8,0.4-1.5,0.6-2.3C6.5,7.6,6.8,5.4,8.4,4.8
		c0.2-0.1,0.4-0.1,0.7-0.1c0.9,0,1.6,0.6,1.7,1.5c0.1,0.8-0.2,1.7-0.5,2.5c-0.3,0.7-0.5,1.4-0.5,2c0,0.6,0.5,1.2,1.5,1.2
		c0.1,0,0.2,0,0.3,0c0.5-0.1,0.7-0.3,0.9-0.5l0.1-0.1c1.1-1,1.7-2.8,1.6-4.8c-0.1-2.1-1.7-3.5-4-3.5c-0.1,0-0.3,0-0.5,0
		C7.6,3.2,5.8,4.7,5.4,6.8c-0.2,0.9,0,1.9,0.4,2.5c0,0,0.1,0.1,0.1,0.1C6.1,9.5,6.2,9.7,6.3,10c0.1,0.5-0.3,1.2-0.5,1.6l-0.1,0.2
		l-0.2,0c-2.2-0.6-2.8-3.1-2.5-5.1c0.5-3,2.9-5.3,6.1-5.7c0.4-0.1,0.9-0.1,1.3-0.1c4,0,6.9,2.6,7,6.2c0.1,3.3-1.7,6.9-5.1,7.3
		c-0.2,0-0.4,0-0.6,0c-1.1,0-1.8-0.4-2.5-0.9c-0.4,1.6-0.8,3.2-1.7,4.5c-0.1,0.1-0.1,0.2-0.2,0.3c-0.2,0.4-0.5,0.9-1,1.1L5.9,19.3z"
		/>
</g>
</svg>
