<?xml version="1.0" encoding="utf-8"?>
<!-- Generator: Adobe Illustrator 19.0.0, SVG Export Plug-In . SVG Version: 6.00 Build 0)  -->
<svg version="1.0" id="Layer_1" xmlns="http://www.w3.org/2000/svg" xmlns:xlink="http://www.w3.org/1999/xlink" x="0px" y="0px"
	 viewBox="0 0 20 20" style="enable-background:new 0 0 20 20;" xml:space="preserve">
<style type="text/css">
	.st0{filter:url(#Adobe_OpacityMaskFilter);}
	.st1{mask:url(#XMLID_375_);}
	.st2{fill:#1F1F1F;}
	.st3{fill:#BEBEBE;}
	.st4{fill:#B8B8B8;}
	.st5{fill:#C2C2C2;}
	.st6{fill:#626262;}
	.st7{fill:#3D3D3D;}
	.st8{fill:#D1D1D1;}
	.st9{fill:#A7A7A7;}
	.st10{fill:#BFBFBF;}
	.st11{fill:#E3E3E3;}
	.st12{fill:#B9B9B9;}
	.st13{fill:#6C6C6C;}
	.st14{fill:#C4C4C4;}
	.st15{fill:#7C7C7C;}
	.st16{fill:#767676;}
	.st17{fill:#424242;}
	.st18{fill:#484848;}
	.st19{fill:#DEDEDE;}
	.st20{fill:#A1A1A1;}
	.st21{fill:#606060;}
	.st22{fill:#C6C6C6;}
	.st23{fill:#D8D8D8;}
	.st24{fill:#828282;}
	.st25{fill:#BBBBBB;}
	.st26{fill:#5D5D5D;}
	.st27{fill:#D7D7D7;}
	.st28{fill:#707070;}
	.st29{fill:#AAAAAA;}
	.st30{fill:#DDDDDD;}
	.st31{fill:#B1B1B1;}
	.st32{fill:#585858;}
	.st33{fill:#9B9B9B;}
	.st34{fill:#8C8C8C;}
	.st35{fill:#8D8D8D;}
	.st36{fill:#7B7B7B;}
	.st37{fill:#5E5E5E;}
	.st38{fill:#C0C0C0;}
	.st39{fill:#535353;}
	.st40{fill:#C1C1C1;}
	.st41{fill:#8F8F8F;}
	.st42{fill:#868686;}
	.st43{fill:#E2E2E2;}
	.st44{fill:#646464;}
	.st45{fill:#A3A3A3;}
	.st46{fill:#818181;}
	.st47{fill:#565656;}
	.st48{fill:#C8C8C8;}
	.st49{fill:#797979;}
	.st50{fill:#8A8A8A;}
	.st51{fill:#A9A9A9;}
	.st52{fill:#595959;}
	.st53{fill:#858585;}
	.st54{fill:#777777;}
	.st55{fill:#434343;}
	.st56{fill:#C5C5C5;}
	.st57{fill:#D2D2D2;}
	.st58{fill:#B2B2B2;}
	.st59{fill:#8E8E8E;}
	.st60{fill:#B0B0B0;}
	.st61{fill:#919191;}
	.st62{fill:#757575;}
	.st63{fill:#737373;}
	.st64{fill:#ACACAC;}
	.st65{fill:#9F9F9F;}
	.st66{fill:#999999;}
	.st67{fill:#3C3C3C;}
	.st68{fill:#DFDFDF;}
	.st69{fill:#848484;}
	.st70{fill:#787878;}
	.st71{fill:#939393;}
	.st72{fill:#6D6D6D;}
	.st73{fill:#717171;}
	.st74{fill:#A2A2A2;}
	.st75{fill:#DCDCDC;}
	.st76{fill:#4C4C4C;}
	.st77{fill:#545454;}
	.st78{fill:#3F3F3F;}
</style>
<defs>
	<filter id="Adobe_OpacityMaskFilter" filterUnits="userSpaceOnUse" x="20.6" y="0.7" width="18.6" height="18.6">
		<feFlood  style="flood-color:white;flood-opacity:1" result="back"/>
		<feBlend  in="SourceGraphic" in2="back" mode="normal"/>
	</filter>
</defs>
<mask maskUnits="userSpaceOnUse" x="20.6" y="0.7" width="18.6" height="18.6" id="XMLID_375_">
	<g id="XMLID_1_" class="st0">
	</g>
</mask>
<g id="XMLID_6_" class="st1">
	<g id="XMLID_2_">
		<path id="XMLID_367_" class="st2" d="M35.2,11.4c0-0.1,0-0.1,0-0.2c0,0,0,0,0,0c0,0,0,0,0,0c0,0,0,0,0,0c0-0.1,0-0.1-0.1-0.2
			c0,0,0-0.1-0.1-0.1c0,0,0,0,0-0.1c-0.3-0.4-0.7-0.7-1.2-0.8c-0.1,0-0.1,0-0.2,0c-0.2,0-0.4,0-0.5,0c-0.1,0-0.1,0-0.2,0
			c-0.2,0-0.3,0.1-0.5,0.1c-0.1,0-0.1,0-0.2,0.1c0,0,0,0,0,0c-0.1,0-0.1,0.1-0.2,0.1c0,0-0.1,0-0.1,0.1c-0.1,0.1-0.1,0.1-0.2,0.2
			c0,0,0,0,0,0.1c0,0,0,0,0,0.1c-0.1,0.1-0.1,0.2-0.2,0.3c0,0,0,0,0,0.1c-0.1,0.1-0.1,0.3-0.2,0.4c0,0,0,0,0,0c0,0,0,0,0,0l0,0
			c0,0,0,0,0,0.1c0,0,0,0.1,0,0.1c0,0,0,0,0,0c0,0,0,0,0,0c0,0,0,0,0,0c0,0,0,0,0,0c0,0,0,0.1,0,0.1c0,0.1,0,0.1,0,0.2
			c0,0,0,0.1,0,0.1c0,0,0,0.1,0,0.1c0,0.1,0,0.1,0,0.2c0,2.3,0,4.5,0,6.8c0,0,0,0,0,0c-1.3,0-2.5,0-3.8,0c0,0-0.1,0-0.1-0.1
			c0-0.9,0-1.8,0-2.8c0-3.2,0-6.4,0-9.5c0,0,0,0,0,0c0,0,0-0.1,0.1-0.1c1.2,0,2.4,0,3.6,0c0.1,0,0.1,0,0.1,0.1c0,0.5,0,1.1,0,1.6
			c0,0,0,0.1,0,0.1c0,0,0.1,0,0.1,0c0.1-0.1,0.1-0.2,0.2-0.3c0,0,0,0,0-0.1c0,0,0.1-0.1,0.1-0.2c0,0,0.1-0.1,0.1-0.1
			c0,0,0,0,0.1-0.1c0-0.1,0.1-0.1,0.2-0.2c0,0,0,0,0.1,0c0,0,0,0,0.1-0.1c0,0,0,0,0,0c0.2-0.2,0.4-0.3,0.6-0.4c0,0,0,0,0,0
			c0,0,0,0,0,0c0,0,0,0,0,0l0,0c0,0,0,0,0.1,0c0,0,0,0,0,0c0,0,0.1,0,0.1,0l0,0c0,0,0,0,0,0c0,0,0,0,0,0c0,0,0,0,0.1,0
			c0,0,0.1,0,0.2-0.1c0,0,0,0,0,0c0,0,0.1,0,0.1,0c0.1,0,0.1,0,0.2-0.1c0.1,0,0.3-0.1,0.4-0.1c0,0,0,0,0.1,0c0,0,0,0,0.1,0
			c0,0,0.1,0,0.1,0c0,0,0,0,0.1,0c0,0,0,0,0,0c0,0,0.1,0,0.1,0c0,0,0,0,0.1,0c0.3,0,0.5,0,0.8,0c0.1,0,0.2,0,0.3,0c0,0,0.1,0,0.1,0
			c0,0,0,0,0,0c0,0,0,0,0.1,0c0,0,0.1,0,0.1,0c0,0,0,0,0,0c0,0,0,0,0,0c0,0,0.1,0,0.1,0c0,0,0,0,0,0c0,0,0.1,0,0.1,0c0,0,0,0,0,0
			c0.2,0,0.3,0.1,0.5,0.1c0,0,0.1,0,0.1,0c0,0,0,0,0,0c0,0,0,0,0,0c0,0,0,0,0,0c0.1,0,0.1,0,0.2,0.1c0.1,0,0.2,0.1,0.3,0.1
			c0,0,0,0,0,0c0,0,0,0,0,0c0.1,0,0.1,0.1,0.2,0.1c0,0,0,0,0.1,0l0,0c0,0,0.1,0,0.1,0.1c0,0,0.1,0.1,0.1,0.1c0,0,0,0,0.1,0
			c0,0,0,0,0,0c0,0,0,0,0,0c0,0,0,0,0,0l0,0c0,0,0,0,0,0C37.9,7.7,38,7.8,38,7.8c0,0,0,0,0.1,0.1c0,0.1,0.1,0.1,0.1,0.2c0,0,0,0,0,0
			l0,0c0,0,0,0.1,0.1,0.1c0.1,0.1,0.1,0.2,0.2,0.3c0,0,0,0.1,0.1,0.1c0.1,0.2,0.2,0.3,0.2,0.5c0,0.1,0.1,0.2,0.1,0.3c0,0,0,0,0,0
			c0,0,0,0.1,0,0.1c0,0,0,0,0,0c0,0,0,0,0,0c0,0.1,0,0.2,0.1,0.2c0,0.1,0,0.2,0.1,0.3c0,0,0,0,0,0.1c0,0.2,0.1,0.4,0.1,0.6
			c0,0,0,0.1,0,0.1c0,0,0,0,0,0c0,0,0,0.1,0,0.1c0,0.2,0,0.4,0,0.6c0,0.2,0,0.4,0,0.7c0,2.3,0,4.7,0,7c0,0.1,0,0.1-0.1,0.1
			c-1.3,0-2.5,0-3.8,0c-0.1,0-0.1,0-0.1-0.1c0-2,0-4,0-5.9c0-0.2,0-0.4,0-0.7c0,0,0,0,0-0.1c0,0,0,0,0-0.1c0-0.1,0-0.2,0-0.4
			c0-0.1,0-0.2,0-0.2c0,0,0-0.1,0-0.1C35.2,11.8,35.2,11.6,35.2,11.4C35.2,11.5,35.2,11.5,35.2,11.4C35.2,11.5,35.2,11.4,35.2,11.4z
			"/>
		<path id="XMLID_366_" class="st2" d="M24.8,13.1c0,2.1,0,4.1,0,6.2c0,0.1,0,0.1-0.1,0.1c-1.2,0-2.5,0-3.7,0c-0.1,0-0.1,0-0.1-0.1
			c0-4.1,0-8.2,0-12.3c0-0.1,0-0.1,0.1-0.1c1.2,0,2.5,0,3.7,0c0.1,0,0.1,0,0.1,0.1C24.8,9,24.8,11.1,24.8,13.1z"/>
		<path id="XMLID_365_" class="st2" d="M24.2,4.7c-0.1,0.1-0.2,0.1-0.3,0.2c0,0,0,0,0,0c-0.1,0-0.1,0.1-0.2,0.1c0,0,0,0,0,0
			c0,0,0,0,0,0c0,0,0,0,0,0c0,0-0.1,0-0.1,0c0,0-0.1,0-0.1,0c0,0,0,0,0,0c-0.1,0-0.2,0-0.2,0c-0.2,0-0.4,0-0.6,0c0,0-0.1,0-0.1,0
			c0,0-0.1,0-0.1,0c-0.1,0-0.1,0-0.2-0.1c0,0,0,0-0.1,0C22,5,22,5,21.9,5c0,0-0.1-0.1-0.1-0.1c0,0-0.1-0.1-0.1-0.1
			c-0.2-0.1-0.3-0.2-0.4-0.4c0,0,0,0,0,0C21,4.3,21,4.1,20.9,4c0-0.1-0.1-0.1-0.1-0.2c0,0,0,0,0,0c0,0,0,0,0-0.1c0,0,0-0.1,0-0.1
			c-0.1-0.3-0.1-0.6-0.1-0.9c0-0.1,0-0.3,0.1-0.4c0-0.1,0-0.1,0.1-0.2c0,0,0,0,0-0.1c0,0,0,0,0,0c0,0,0,0,0,0c0,0,0,0,0,0
			c0,0,0-0.1,0-0.1c0,0,0,0,0-0.1c0,0,0,0,0-0.1c0,0,0,0,0-0.1c0.1-0.2,0.2-0.3,0.4-0.4c0,0,0,0,0,0c0,0,0.1-0.1,0.1-0.1
			c0,0,0,0,0,0c0,0,0,0,0,0C21.7,1,21.9,1,22,0.9c0,0,0,0,0,0c0.1,0,0.1,0,0.2-0.1c0,0,0,0,0.1,0c0,0,0,0,0.1,0c0,0,0,0,0.1,0
			c0.3-0.1,0.5-0.1,0.8,0c0,0,0.1,0,0.1,0c0.1,0,0.1,0,0.2,0.1c0,0,0.1,0,0.1,0c0,0,0,0,0,0c0.1,0,0.1,0.1,0.2,0.1
			C23.9,1,24,1,24,1.1c0.1,0,0.1,0.1,0.2,0.1c0,0,0.1,0,0.1,0.1c0,0,0,0,0,0c0,0,0,0,0,0c0,0,0.1,0.1,0.1,0.1c0,0,0,0,0,0
			c0,0,0,0,0,0c0,0,0,0,0.1,0.1c0,0,0,0,0,0c0,0,0.1,0.1,0.1,0.1c0,0.1,0.1,0.1,0.1,0.2c0,0.1,0.1,0.2,0.1,0.2c0,0,0,0.1,0,0.1
			c0,0,0,0,0,0.1c0,0,0,0.1,0,0.1c0,0.2,0.1,0.4,0.1,0.6c0,0.1,0,0.1,0,0.2c0,0.1,0,0.2,0,0.2c0,0,0,0,0,0c0,0,0,0,0,0.1
			c0,0,0,0.1,0,0.1c0,0,0,0,0,0c0,0,0,0,0,0c0,0.1-0.1,0.1-0.1,0.2c0,0,0,0.1,0,0.1c0,0,0,0.1,0,0.1c0,0.1-0.1,0.1-0.1,0.2
			c0,0,0,0,0,0C24.5,4.4,24.4,4.6,24.2,4.7C24.3,4.7,24.2,4.7,24.2,4.7z"/>
		<path id="XMLID_364_" class="st3" d="M20.8,2.2c0,0.1,0,0.1,0,0.2c0,0.1-0.1,0.2-0.1,0.3c0,0.2,0,0.5,0,0.7c0,0.1,0,0.1,0,0.2
			c0,0,0,0,0,0c0-0.1-0.1-0.2-0.1-0.3c0-0.2,0-0.4,0-0.5c0-0.1,0-0.3,0.1-0.4C20.7,2.3,20.7,2.3,20.8,2.2
			C20.7,2.2,20.7,2.2,20.8,2.2z"/>
		<path id="XMLID_363_" class="st4" d="M35.3,12c0,0.2,0,0.4,0,0.6c0,0,0,0,0,0.1c0,0,0,0,0-0.1C35.3,12.4,35.3,12.2,35.3,12
			c0-0.1,0-0.2-0.1-0.3c0-0.1,0-0.1,0-0.2c0,0.1,0,0.1,0,0.2C35.2,11.8,35.2,11.8,35.3,12C35.3,11.9,35.3,12,35.3,12z"/>
		<path id="XMLID_362_" class="st5" d="M25,3.2c0-0.1,0-0.2,0-0.3c0-0.1,0-0.3,0-0.4c0-0.1,0-0.1,0-0.2c0,0,0,0,0,0
			c0.1,0.3,0.1,0.5,0.1,0.8C25.1,3.1,25.1,3.2,25,3.2C25,3.2,25.1,3.3,25,3.2c0,0.1,0,0.1,0,0.1C25,3.3,25,3.3,25,3.2z"/>
		<path id="XMLID_361_" class="st6" d="M22.5,5.1c0,0,0.1,0,0.1,0c0.2,0,0.3,0,0.5,0c0.1,0,0.2,0,0.3,0c0,0,0,0,0,0
			c-0.2,0.1-0.4,0.1-0.7,0c0,0,0,0-0.1,0C22.6,5.1,22.5,5.2,22.5,5.1C22.5,5.1,22.5,5.1,22.5,5.1C22.5,5.1,22.5,5.1,22.5,5.1
			C22.5,5.1,22.5,5.1,22.5,5.1z"/>
		<path id="XMLID_360_" class="st7" d="M39.1,10.8c0-0.1,0-0.1,0-0.2c0-0.1,0-0.2,0-0.2c0-0.1,0-0.1,0-0.2c0,0.1,0,0.2,0.1,0.3
			c0,0,0,0.1,0,0.1C39.1,10.6,39.1,10.7,39.1,10.8C39.2,10.7,39.2,10.7,39.1,10.8C39.2,10.8,39.2,10.8,39.1,10.8z"/>
		<path id="XMLID_359_" class="st8" d="M36.4,6.8c-0.1,0-0.1,0-0.2-0.1c-0.1,0-0.1,0-0.2,0c0,0,0,0,0,0c0.1,0,0.1,0,0.2,0
			C36.2,6.8,36.3,6.8,36.4,6.8C36.4,6.8,36.4,6.8,36.4,6.8z"/>
		<path id="XMLID_358_" class="st9" d="M31.1,12.1c0-0.1,0-0.1,0-0.2c0,0,0,0,0,0C31.1,12,31.1,12.1,31.1,12.1c0,0.1,0,0.2,0,0.2
			c0,0,0,0,0,0C31,12.3,31,12.2,31.1,12.1C31.1,12.2,31.1,12.1,31.1,12.1z"/>
		<path id="XMLID_357_" class="st10" d="M22,5c0.1,0,0.2,0,0.2,0.1c0,0,0,0,0,0c0,0,0,0,0,0C22.2,5.1,22.1,5.1,22,5z"/>
		<path id="XMLID_356_" class="st11" d="M24.8,1.9c0-0.1-0.1-0.1-0.1-0.2C24.8,1.8,24.8,1.9,24.8,1.9z"/>
		<path id="XMLID_355_" class="st12" d="M33.3,6.8c-0.1,0-0.1,0.1-0.2,0.1C33.2,6.8,33.3,6.8,33.3,6.8z"/>
		<path id="XMLID_354_" class="st13" d="M25,3.2c0,0,0,0.1,0,0.1c0,0,0,0.1,0,0.1C25,3.4,25,3.3,25,3.2z"/>
		<path id="XMLID_353_" class="st14" d="M34.2,6.6C34.2,6.6,34.2,6.6,34.2,6.6c-0.1,0-0.1,0-0.1,0C34.1,6.6,34.1,6.6,34.2,6.6
			C34.2,6.6,34.2,6.6,34.2,6.6z"/>
		<path id="XMLID_352_" class="st10" d="M22.5,5.1C22.5,5.1,22.5,5.1,22.5,5.1c-0.1,0-0.1,0-0.2,0c0,0,0.1,0,0.1,0
			C22.4,5.1,22.4,5.1,22.5,5.1z"/>
		<path id="XMLID_351_" class="st15" d="M31,12.3C31,12.3,31,12.3,31,12.3c0,0.1,0,0.2,0,0.2C31,12.4,31,12.4,31,12.3z"/>
		<path id="XMLID_350_" class="st16" d="M21.6,4.8c0.1,0,0.1,0,0.1,0.1C21.7,4.9,21.7,4.8,21.6,4.8z"/>
		<path id="XMLID_349_" class="st17" d="M33.6,10c0,0,0.1,0,0.1,0c0,0,0,0,0,0C33.7,10,33.6,10,33.6,10z"/>
		<path id="XMLID_348_" class="st18" d="M32.9,10C32.9,10,32.9,10,32.9,10c0.1,0,0.1,0,0.2,0C33,10,32.9,10,32.9,10z"/>
		<path id="XMLID_347_" class="st19" d="M20.7,3.6C20.7,3.6,20.7,3.6,20.7,3.6c0,0,0,0.1,0.1,0.1C20.7,3.7,20.7,3.6,20.7,3.6z"/>
		<path id="XMLID_346_" class="st5" d="M24,1.1c-0.1,0-0.1,0-0.1-0.1C23.9,1,24,1,24,1.1z"/>
		<path id="XMLID_345_" class="st20" d="M21.5,1.2C21.4,1.3,21.4,1.3,21.5,1.2C21.4,1.3,21.4,1.2,21.5,1.2z"/>
		<path id="XMLID_344_" class="st16" d="M34.9,10.8c0,0,0.1,0.1,0.1,0.1C35,10.9,35,10.9,34.9,10.8C34.9,10.8,34.9,10.8,34.9,10.8z"
			/>
		<path id="XMLID_343_" class="st21" d="M35.6,6.7C35.6,6.7,35.5,6.7,35.6,6.7C35.5,6.7,35.6,6.7,35.6,6.7
			C35.6,6.7,35.6,6.7,35.6,6.7z"/>
		<path id="XMLID_342_" class="st22" d="M39.2,11c0,0,0-0.1,0-0.1C39.2,10.9,39.2,11,39.2,11z"/>
		<path id="XMLID_341_" class="st21" d="M38.9,9.5c0,0,0-0.1,0-0.1C38.9,9.4,38.9,9.5,38.9,9.5z"/>
		<path id="XMLID_340_" class="st23" d="M39.1,10.6c0,0,0-0.1,0-0.1C39.2,10.5,39.1,10.6,39.1,10.6z"/>
		<path id="XMLID_339_" class="st24" d="M38.5,8.6c0,0-0.1-0.1-0.1-0.1C38.5,8.5,38.5,8.5,38.5,8.6z"/>
		<path id="XMLID_338_" class="st25" d="M34,6.7C34,6.7,33.9,6.7,34,6.7C33.9,6.6,34,6.6,34,6.7C34,6.6,34,6.6,34,6.7z"/>
		<path id="XMLID_337_" class="st26" d="M35.4,6.7C35.4,6.6,35.3,6.7,35.4,6.7C35.3,6.6,35.4,6.6,35.4,6.7
			C35.4,6.6,35.4,6.6,35.4,6.7z"/>
		<path id="XMLID_336_" class="st27" d="M35.9,6.7c0,0-0.1,0-0.1,0C35.9,6.7,35.9,6.7,35.9,6.7z"/>
		<path id="XMLID_335_" class="st28" d="M23.4,5.1c0,0,0.1,0,0.1,0C23.4,5.1,23.4,5.1,23.4,5.1z"/>
		<path id="XMLID_334_" class="st29" d="M38.1,7.9C38.1,7.9,38,7.9,38.1,7.9C38.1,7.8,38.1,7.9,38.1,7.9z"/>
		<path id="XMLID_333_" class="st10" d="M22.5,5.1C22.5,5.1,22.6,5.1,22.5,5.1C22.6,5.2,22.5,5.2,22.5,5.1z"/>
		<path id="XMLID_332_" class="st30" d="M35.8,6.7c0,0-0.1,0-0.1,0C35.7,6.7,35.8,6.7,35.8,6.7z"/>
		<path id="XMLID_331_" class="st9" d="M31.1,11.8C31.1,11.8,31.1,11.8,31.1,11.8C31.1,11.8,31.1,11.8,31.1,11.8
			C31.1,11.8,31.1,11.9,31.1,11.8C31.1,11.9,31.1,11.9,31.1,11.8z"/>
		<path id="XMLID_330_" class="st31" d="M24.8,4C24.8,4,24.8,4,24.8,4C24.8,4,24.8,4,24.8,4C24.8,4.1,24.8,4,24.8,4z"/>
		<path id="XMLID_329_" class="st32" d="M24.3,1.3C24.2,1.2,24.2,1.2,24.3,1.3C24.2,1.2,24.3,1.2,24.3,1.3z"/>
		<path id="XMLID_328_" class="st33" d="M39.1,10.8C39.1,10.8,39.2,10.8,39.1,10.8C39.2,10.7,39.2,10.7,39.1,10.8
			C39.2,10.8,39.2,10.8,39.1,10.8C39.2,10.8,39.2,10.8,39.1,10.8z"/>
		<path id="XMLID_327_" class="st34" d="M31.9,10.4C31.9,10.3,32,10.3,31.9,10.4C32,10.3,32,10.3,31.9,10.4z"/>
		<path id="XMLID_326_" class="st35" d="M37.5,7.4C37.5,7.4,37.4,7.3,37.5,7.4C37.5,7.3,37.5,7.3,37.5,7.4z"/>
		<path id="XMLID_325_" class="st28" d="M31.5,7.9C31.5,7.9,31.5,7.9,31.5,7.9C31.4,7.9,31.5,7.9,31.5,7.9z"/>
		<path id="XMLID_324_" class="st35" d="M32.7,7C32.7,7,32.6,7,32.7,7C32.6,7,32.7,7,32.7,7z"/>
		<path id="XMLID_323_" class="st36" d="M33.8,6.7C33.8,6.7,33.8,6.7,33.8,6.7C33.8,6.6,33.8,6.7,33.8,6.7z"/>
		<path id="XMLID_322_" class="st37" d="M23.3,0.8C23.3,0.8,23.3,0.8,23.3,0.8C23.3,0.8,23.3,0.8,23.3,0.8z"/>
		<path id="XMLID_321_" class="st6" d="M38.3,8.2C38.3,8.2,38.2,8.1,38.3,8.2C38.3,8.1,38.3,8.1,38.3,8.2z"/>
		<path id="XMLID_320_" class="st18" d="M24.8,4C24.8,4,24.8,4.1,24.8,4C24.7,4.1,24.7,4.1,24.8,4C24.7,4.1,24.7,4.1,24.8,4z"/>
		<path id="XMLID_319_" class="st38" d="M31.2,8.2C31.2,8.2,31.2,8.3,31.2,8.2C31.1,8.3,31.1,8.2,31.2,8.2z"/>
		<path id="XMLID_318_" class="st39" d="M31.6,10.6C31.7,10.6,31.7,10.6,31.6,10.6C31.7,10.6,31.7,10.6,31.6,10.6
			C31.7,10.6,31.6,10.6,31.6,10.6z"/>
		<path id="XMLID_317_" class="st3" d="M31.6,10.6C31.6,10.6,31.7,10.6,31.6,10.6C31.6,10.6,31.6,10.7,31.6,10.6
			C31.6,10.6,31.6,10.6,31.6,10.6z"/>
		<path id="XMLID_316_" class="st40" d="M21,1.7C21,1.8,21,1.8,21,1.7C20.9,1.8,20.9,1.8,21,1.7C20.9,1.8,21,1.8,21,1.7z"/>
		<path id="XMLID_315_" class="st41" d="M22.4,0.8C22.4,0.8,22.4,0.8,22.4,0.8C22.4,0.8,22.4,0.8,22.4,0.8
			C22.4,0.8,22.4,0.8,22.4,0.8z"/>
		<path id="XMLID_314_" class="st20" d="M20.9,1.9C20.9,1.9,20.9,1.9,20.9,1.9C20.9,1.9,20.9,1.9,20.9,1.9
			C20.9,1.9,20.9,1.9,20.9,1.9z"/>
		<path id="XMLID_313_" class="st42" d="M31.2,11.6C31.2,11.5,31.2,11.5,31.2,11.6C31.2,11.5,31.2,11.5,31.2,11.6z"/>
		<path id="XMLID_312_" class="st43" d="M20.9,1.9C20.9,1.9,20.9,1.9,20.9,1.9C20.9,1.8,20.9,1.8,20.9,1.9
			C20.9,1.8,20.9,1.8,20.9,1.9C20.9,1.8,20.9,1.9,20.9,1.9z"/>
		<path id="XMLID_311_" class="st44" d="M31.8,7.5C31.8,7.6,31.8,7.6,31.8,7.5C31.8,7.6,31.8,7.6,31.8,7.5z"/>
		<path id="XMLID_310_" class="st45" d="M34.9,10.8C34.9,10.8,34.9,10.8,34.9,10.8C34.9,10.8,34.9,10.8,34.9,10.8
			C34.9,10.8,34.9,10.8,34.9,10.8z"/>
		<path id="XMLID_309_" class="st46" d="M37.7,7.5C37.7,7.5,37.7,7.5,37.7,7.5C37.7,7.5,37.7,7.5,37.7,7.5z"/>
		<path id="XMLID_308_" class="st47" d="M22.4,5.1C22.3,5.1,22.3,5.1,22.4,5.1C22.3,5.1,22.3,5.1,22.4,5.1
			C22.3,5.1,22.3,5.1,22.4,5.1C22.3,5.1,22.3,5.1,22.4,5.1z"/>
		<path id="XMLID_307_" class="st48" d="M35.2,11.4C35.2,11.4,35.2,11.4,35.2,11.4C35.1,11.5,35.2,11.4,35.2,11.4z"/>
		<path id="XMLID_306_" class="st49" d="M31.7,7.6C31.7,7.7,31.7,7.7,31.7,7.6C31.7,7.7,31.7,7.7,31.7,7.6z"/>
		<path id="XMLID_305_" class="st50" d="M32.6,7.1C32.5,7.1,32.5,7.1,32.6,7.1C32.5,7.1,32.5,7.1,32.6,7.1z"/>
		<path id="XMLID_304_" class="st51" d="M24.3,1.3C24.3,1.3,24.3,1.3,24.3,1.3C24.3,1.3,24.3,1.3,24.3,1.3z"/>
		<path id="XMLID_303_" class="st52" d="M25,3.5C25,3.5,25,3.5,25,3.5C25,3.5,25,3.5,25,3.5z"/>
		<path id="XMLID_302_" class="st53" d="M21.1,4.4C21.2,4.4,21.2,4.4,21.1,4.4C21.1,4.4,21.1,4.4,21.1,4.4z"/>
		<path id="XMLID_301_" class="st54" d="M24.2,4.7C24.2,4.7,24.3,4.6,24.2,4.7C24.3,4.7,24.2,4.7,24.2,4.7z"/>
		<path id="XMLID_300_" class="st37" d="M23.6,5C23.6,5,23.6,5,23.6,5C23.7,5,23.6,5,23.6,5z"/>
		<path id="XMLID_299_" class="st55" d="M22.4,0.8C22.4,0.8,22.4,0.8,22.4,0.8C22.4,0.8,22.4,0.8,22.4,0.8
			C22.4,0.8,22.4,0.8,22.4,0.8z"/>
		<path id="XMLID_298_" class="st56" d="M39.2,10.7C39.2,10.7,39.2,10.7,39.2,10.7C39.2,10.7,39.2,10.7,39.2,10.7
			C39.2,10.7,39.2,10.7,39.2,10.7z"/>
		<path id="XMLID_297_" class="st53" d="M31.4,11C31.4,11,31.4,10.9,31.4,11C31.4,11,31.4,11,31.4,11z"/>
		<path id="XMLID_296_" class="st57" d="M35.6,6.7C35.6,6.7,35.6,6.7,35.6,6.7C35.6,6.7,35.7,6.6,35.6,6.7
			C35.6,6.7,35.6,6.7,35.6,6.7z"/>
		<path id="XMLID_295_" class="st5" d="M35.4,6.7C35.4,6.6,35.4,6.6,35.4,6.7C35.4,6.6,35.4,6.6,35.4,6.7
			C35.4,6.7,35.4,6.7,35.4,6.7z"/>
		<path id="XMLID_294_" class="st58" d="M33,6.9C33,6.9,33,6.9,33,6.9C33,6.9,33,6.9,33,6.9z"/>
		<path id="XMLID_293_" class="st59" d="M37.4,7.3C37.4,7.3,37.4,7.3,37.4,7.3C37.4,7.3,37.4,7.3,37.4,7.3z"/>
		<path id="XMLID_292_" class="st47" d="M34,6.7C34,6.6,34,6.6,34,6.7C34,6.6,34,6.6,34,6.7C34,6.7,34,6.7,34,6.7z"/>
		<path id="XMLID_291_" class="st54" d="M36.6,6.9C36.6,6.9,36.6,6.9,36.6,6.9C36.6,6.9,36.6,6.9,36.6,6.9z"/>
		<path id="XMLID_290_" class="st60" d="M31.2,11.5C31.2,11.5,31.2,11.5,31.2,11.5C31.2,11.5,31.2,11.5,31.2,11.5z"/>
		<path id="XMLID_289_" class="st45" d="M35.1,11.2C35.1,11.2,35.1,11.2,35.1,11.2C35.1,11.2,35.1,11.2,35.1,11.2z"/>
		<path id="XMLID_288_" class="st61" d="M25,2.3C25,2.3,25,2.3,25,2.3C24.9,2.3,25,2.3,25,2.3C25,2.3,25,2.3,25,2.3z"/>
		<path id="XMLID_287_" class="st62" d="M32.8,7C32.8,7,32.8,7,32.8,7C32.8,6.9,32.8,6.9,32.8,7z"/>
		<path id="XMLID_286_" class="st51" d="M32.7,7C32.7,7,32.7,7,32.7,7C32.7,7,32.7,7,32.7,7z"/>
		<path id="XMLID_285_" class="st63" d="M31.1,11.8C31.1,11.9,31.1,11.9,31.1,11.8C31.1,11.9,31.1,11.9,31.1,11.8
			C31.1,11.9,31.1,11.9,31.1,11.8C31.1,11.9,31.1,11.9,31.1,11.8z"/>
		<path id="XMLID_284_" class="st12" d="M31.1,11.7C31.1,11.7,31.2,11.8,31.1,11.7C31.1,11.8,31.1,11.8,31.1,11.7
			C31.1,11.7,31.1,11.7,31.1,11.7z"/>
		<path id="XMLID_283_" class="st63" d="M31.1,11.7C31.1,11.7,31.1,11.7,31.1,11.7C31.1,11.7,31.1,11.7,31.1,11.7
			C31.1,11.7,31.1,11.7,31.1,11.7C31.1,11.7,31.1,11.7,31.1,11.7C31.1,11.7,31.1,11.7,31.1,11.7z"/>
		<path id="XMLID_282_" class="st46" d="M24.5,1.5C24.5,1.5,24.4,1.4,24.5,1.5C24.5,1.4,24.5,1.4,24.5,1.5
			C24.5,1.5,24.5,1.5,24.5,1.5z"/>
		<path id="XMLID_281_" class="st51" d="M24.5,1.5C24.5,1.5,24.5,1.5,24.5,1.5C24.5,1.5,24.5,1.5,24.5,1.5
			C24.5,1.5,24.5,1.5,24.5,1.5z"/>
		<path id="XMLID_280_" class="st64" d="M37.8,7.6C37.8,7.6,37.7,7.6,37.8,7.6C37.8,7.5,37.8,7.6,37.8,7.6
			C37.8,7.6,37.8,7.6,37.8,7.6z"/>
		<path id="XMLID_279_" class="st20" d="M37.8,7.6C37.8,7.6,37.8,7.6,37.8,7.6C37.8,7.6,37.8,7.6,37.8,7.6
			C37.8,7.6,37.8,7.6,37.8,7.6z"/>
		<path id="XMLID_278_" class="st65" d="M35.1,11.1C35.1,11.1,35.1,11.1,35.1,11.1C35.1,11.2,35.1,11.1,35.1,11.1z"/>
		<path id="XMLID_277_" class="st47" d="M20.8,2C20.8,2.1,20.8,2.1,20.8,2C20.8,2.1,20.8,2,20.8,2z"/>
		<path id="XMLID_276_" class="st62" d="M20.8,2.1C20.8,2.1,20.8,2.1,20.8,2.1C20.8,2.1,20.8,2.1,20.8,2.1z"/>
		<path id="XMLID_275_" class="st66" d="M24.9,3.7C24.9,3.7,24.9,3.7,24.9,3.7C24.9,3.7,24.9,3.7,24.9,3.7z"/>
		<path id="XMLID_274_" class="st67" d="M20.8,3.8C20.8,3.8,20.8,3.8,20.8,3.8C20.8,3.8,20.8,3.8,20.8,3.8z"/>
		<path id="XMLID_273_" class="st68" d="M23.9,4.9C23.9,4.9,23.9,4.9,23.9,4.9C23.9,4.9,23.9,4.9,23.9,4.9z"/>
		<path id="XMLID_272_" class="st53" d="M23.7,5C23.7,5,23.7,5,23.7,5C23.7,5,23.7,5,23.7,5z"/>
		<path id="XMLID_271_" class="st69" d="M21.5,1.2C21.5,1.2,21.5,1.2,21.5,1.2C21.5,1.2,21.5,1.2,21.5,1.2z"/>
		<path id="XMLID_270_" class="st49" d="M36.7,6.9C36.6,6.9,36.6,6.9,36.7,6.9C36.6,6.9,36.6,6.9,36.7,6.9z"/>
		<path id="XMLID_269_" class="st70" d="M32.5,7.1C32.5,7.1,32.4,7.1,32.5,7.1C32.4,7.1,32.4,7.1,32.5,7.1z"/>
		<path id="XMLID_268_" class="st47" d="M37.2,7.2C37.2,7.2,37.2,7.2,37.2,7.2C37.2,7.2,37.2,7.2,37.2,7.2z"/>
		<path id="XMLID_267_" class="st46" d="M37.8,7.6C37.8,7.6,37.8,7.6,37.8,7.6C37.8,7.6,37.8,7.6,37.8,7.6z"/>
		<path id="XMLID_266_" class="st71" d="M38.9,9.6C38.9,9.6,38.9,9.6,38.9,9.6C38.9,9.5,38.9,9.6,38.9,9.6z"/>
		<path id="XMLID_265_" class="st16" d="M23.7,0.9C23.7,0.9,23.6,0.9,23.7,0.9C23.7,0.9,23.7,0.9,23.7,0.9z"/>
		<path id="XMLID_264_" class="st59" d="M32.2,10.2C32.2,10.2,32.2,10.2,32.2,10.2C32.2,10.2,32.2,10.2,32.2,10.2z"/>
		<path id="XMLID_263_" class="st30" d="M22.1,0.9C22.1,0.9,22.1,0.9,22.1,0.9C22.1,0.9,22.1,0.9,22.1,0.9z"/>
		<path id="XMLID_262_" class="st72" d="M32.5,7.1C32.5,7.1,32.5,7.1,32.5,7.1C32.5,7.1,32.5,7.1,32.5,7.1z"/>
		<path id="XMLID_261_" class="st36" d="M24.6,1.6C24.6,1.6,24.6,1.6,24.6,1.6C24.6,1.6,24.6,1.6,24.6,1.6z"/>
		<path id="XMLID_260_" class="st73" d="M38.2,8.1C38.2,8.1,38.2,8.1,38.2,8.1C38.2,8.1,38.2,8.1,38.2,8.1z"/>
		<path id="XMLID_259_" class="st63" d="M31.1,11.7C31.1,11.8,31.1,11.8,31.1,11.7C31.1,11.8,31.1,11.8,31.1,11.7
			C31.1,11.8,31.1,11.8,31.1,11.7C31.1,11.8,31.1,11.8,31.1,11.7L31.1,11.7L31.1,11.7C31.1,11.7,31.1,11.7,31.1,11.7z"/>
		<path id="XMLID_258_" class="st74" d="M24.6,4.3C24.6,4.3,24.6,4.3,24.6,4.3C24.6,4.3,24.6,4.3,24.6,4.3z"/>
		<path id="XMLID_257_" class="st75" d="M25.1,3.2C25.1,3.2,25.1,3.1,25.1,3.2C25.1,3.2,25.1,3.2,25.1,3.2z"/>
		<path id="XMLID_256_" class="st76" d="M35.3,12C35.3,12,35.2,11.9,35.3,12C35.3,11.9,35.3,12,35.3,12z"/>
		<path id="XMLID_255_" class="st77" d="M31.1,12.1C31.1,12.1,31.1,12.2,31.1,12.1C31.1,12.1,31,12.1,31.1,12.1z"/>
		<path id="XMLID_254_" class="st78" d="M31.1,11.7C31.1,11.7,31.1,11.7,31.1,11.7C31.1,11.7,31.1,11.7,31.1,11.7
			C31.1,11.7,31.1,11.7,31.1,11.7z"/>
	</g>
</g>
<g id="XMLID_3_">
	<path id="XMLID_151_" class="st2" d="M17,5c0.4,0,0.8-0.1,1.2-0.2c0.3-0.1,0.5-0.2,0.8-0.3c0,0,0,0,0,0c0,0,0,0,0,0
		c-0.5,0.7-1,1.2-1.7,1.8c0,0,0,0,0,0c-0.1,0-0.1,0.1-0.1,0.1c0,0.3,0,0.6,0,1c0,0.4-0.1,0.8-0.1,1.1c-0.1,0.6-0.3,1.3-0.5,1.9
		c-0.2,0.4-0.3,0.9-0.6,1.3c-0.4,0.8-0.9,1.6-1.6,2.3c-0.5,0.6-1.1,1.1-1.7,1.5c-0.7,0.5-1.4,0.8-2.1,1.1c-0.7,0.3-1.4,0.5-2.2,0.6
		c-0.5,0.1-1,0.1-1.5,0.1c-0.3,0-0.6,0-1,0c-0.5,0-0.9-0.1-1.4-0.2c-0.6-0.1-1.3-0.3-1.9-0.6c-0.5-0.2-1-0.5-1.5-0.8c0,0,0,0,0,0
		l0,0c0,0,0,0,0.1,0c0.2,0,0.5,0,0.7,0c0.8,0,1.6-0.1,2.4-0.4c0.7-0.2,1.4-0.6,2-1c0.1,0,0.1-0.1,0.2-0.2c-1-0.1-1.9-0.5-2.6-1.2
		c-0.4-0.4-0.7-0.9-0.8-1.4c0.5,0.1,1,0.1,1.5,0c0,0,0,0,0.1,0c0,0,0,0,0,0c0,0,0,0,0,0c0,0,0,0,0,0c0,0,0,0,0,0c0,0,0,0,0,0
		c0,0,0,0,0,0c0,0,0,0,0,0l0,0l0,0c0,0,0,0-0.1,0c-0.3-0.1-0.6-0.2-0.8-0.3c-0.6-0.3-1.1-0.8-1.5-1.5C1.9,9.2,1.7,8.6,1.7,7.9
		c0,0,0-0.1,0-0.1c0,0,0.1,0,0.1,0c0.4,0.2,0.9,0.4,1.4,0.4c0.1,0,0.1,0,0.2,0c0,0,0,0-0.1,0C2.9,7.9,2.5,7.4,2.2,6.9
		C2,6.5,1.9,6.1,1.8,5.6C1.8,5.1,1.8,4.6,2,4C2,3.8,2.1,3.7,2.2,3.5c0,0,0,0,0-0.1c0,0,0,0,0,0c0,0,0,0,0,0l0,0c0,0,0,0,0,0
		C4.5,6,7.5,7.1,9.9,7.2c0-0.1,0-0.1,0-0.2C9.8,6.5,9.8,6,9.9,5.5c0.2-0.6,0.5-1.2,0.9-1.6c0.5-0.5,1.1-0.9,1.9-1
		c0.7-0.2,1.5-0.1,2.2,0.2c0.5,0.2,0.9,0.5,1.2,0.8c0.1,0.1,0.1,0.1,0.2,0c0.4-0.1,0.8-0.2,1.1-0.3c0.4-0.1,0.7-0.3,1.1-0.5
		c0,0,0,0,0.1,0c0,0.1,0,0.1-0.1,0.2C18.2,3.9,17.7,4.5,17,5c-0.1,0-0.1,0-0.1,0"/>
</g>
<g id="XMLID_4_">
	<path id="XMLID_19_" class="st2" d="M-13.5,11.5c0-1,0-2,0-3c0-0.1,0-0.1,0-0.2c0-0.1,0-0.1-0.1-0.1c0,0-0.1,0-0.1,0
		c-0.5,0-0.9,0-1.4,0c-0.1,0-0.1,0-0.2,0c0,0,0,0,0,0c0,0,0-0.1,0-0.1c0-0.7,0-1.4,0-2.1c0-0.2,0-0.2,0.1-0.2
		c0.4-0.2,0.8-0.4,1.1-0.6c0.7-0.5,1.2-1.1,1.6-1.8c0.4-0.7,0.6-1.5,0.8-2.3c0-0.1,0-0.1,0-0.2c0-0.1,0.1-0.1,0.1-0.1
		c0,0,0.1,0,0.1,0c0.8,0,1.6,0,2.4,0c0,0,0.1,0,0.1,0c0.1,0,0.1,0,0.1,0.1c0,0.1,0,0.1,0,0.2c0,1.4,0,2.8,0,4.2c0,0,0,0.1,0,0.1
		c0,0.2,0,0.2,0.2,0.2c1.1,0,2.2,0,3.2,0c0,0,0.1,0,0.1,0c0.1,0,0.1,0,0.1,0.1c0,0.8,0,1.7,0,2.5c0,0,0,0,0,0.1c0,0.1,0,0.1-0.1,0.1
		c-0.1,0-0.1,0-0.2,0c-1.1,0-2.2,0-3.2,0c-0.1,0-0.1,0-0.2,0c0,0-0.1,0-0.1,0.1c0,0,0,0.1,0,0.1c0,1.8,0,3.6,0,5.4
		c0,0.3,0,0.5,0.1,0.8c0.1,0.2,0.1,0.4,0.2,0.6c0.3,0.4,0.6,0.6,1.1,0.6c0.6,0.1,1.2,0,1.8-0.2c0,0,0,0,0.1,0c0,0,0,0,0,0
		c0,0,0,0.1,0.1,0.1c0.2,0.7,0.4,1.3,0.7,2c0,0.1,0.1,0.2,0.1,0.3c0,0.1,0,0.2-0.1,0.2c-0.1,0.1-0.1,0.1-0.2,0.2
		c-0.3,0.2-0.6,0.3-0.9,0.4c-0.4,0.2-0.9,0.3-1.3,0.3c-0.4,0.1-0.8,0.1-1.2,0c-0.5,0-1-0.1-1.5-0.3c-1.1-0.3-1.9-0.9-2.6-1.8
		c-0.5-0.7-0.8-1.5-0.9-2.3c0-0.2,0-0.5,0-0.7C-13.5,13.3-13.5,12.4-13.5,11.5z"/>
</g>
<g id="XMLID_5_">
	<path id="XMLID_21_" class="st2" d="M-25.7,7.5c0,0.2,0,0.3-0.1,0.5c-0.1,0.5-0.1,1.1-0.2,1.6c0,0.4-0.1,0.7-0.1,1.1
		c0,0.1,0,0.1-0.1,0.1c-0.1,0-0.1,0-0.2,0c-0.8,0-1.6,0-2.4,0c0,0-0.1,0-0.1,0c-0.1,0-0.1,0-0.1,0.1c0,0.1,0,0.1,0,0.2
		c0,2.7,0,5.3,0,8c0,0.3,0,0.2-0.2,0.2c-1,0-2,0-3,0c-0.2,0-0.2,0-0.2-0.2c0,0,0-0.1,0-0.1c0-2.6,0-5.3,0-7.9c0-0.3,0-0.2-0.2-0.2
		c-0.8,0-1.6,0-2.4,0c-0.1,0-0.1,0-0.2,0c0,0-0.1,0-0.1-0.1c0,0,0-0.1,0-0.1c0-1,0-2,0-2.9c0,0,0,0,0,0c0-0.1,0-0.1,0.1-0.1
		c0.8,0,1.6,0,2.4,0c0.1,0,0.1,0,0.2,0c0.1,0,0.1,0,0.1-0.1c0-0.1,0-0.1,0-0.2c0-0.8,0-1.6,0-2.4c0-0.7,0.1-1.3,0.4-2
		c0.4-0.9,1.1-1.5,1.9-1.8c0.6-0.2,1.2-0.3,1.9-0.3c0.6,0,1.2,0,1.8,0c0.2,0,0.4,0,0.6,0.1c0.1,0,0.1,0,0.1,0.1c0,0,0,0.1,0,0.1
		c0,0.9,0,1.7,0,2.6c0,0,0,0.1,0,0.1c0,0.1,0,0.1-0.1,0.1c0,0-0.1,0-0.1,0c-0.5,0-1,0-1.5,0c-0.2,0-0.5,0-0.7,0.1
		c-0.3,0.1-0.5,0.2-0.7,0.5c-0.1,0.2-0.2,0.3-0.2,0.5c0,0.2,0,0.3,0,0.5c0,0.7,0,1.4,0,2c0,0,0,0.1,0,0.1c0,0,0,0,0,0
		c0.1,0,0.1,0,0.2,0c0.9,0,1.9,0,2.8,0C-25.8,7.5-25.8,7.5-25.7,7.5z"/>
</g>
<g id="XMLID_8_">
	<path id="XMLID_22_" class="st2" d="M-60.8,6c0-0.5,0-1-0.2-1.5c-0.1-0.4-0.3-0.9-0.5-1.3c-0.6-1-1.5-1.7-2.7-2.1
		C-64.7,1.1-65.2,1-65.8,1c-0.7,0-1.3-0.1-2-0.1c-0.6,0-1.2,0-1.8,0c-1.4,0-2.7,0-4.1,0.1c-0.6,0-1.1,0.1-1.7,0.3
		c-0.7,0.2-1.3,0.5-1.8,1c-0.5,0.4-0.8,0.9-1.1,1.4c-0.3,0.7-0.5,1.4-0.6,2.1c0,0.5-0.1,1-0.1,1.5c0,0.8,0,1.6,0,2.4
		c0,1.4,0,2.7,0,4.1c0,0.6,0.1,1.1,0.2,1.7c0.2,0.8,0.6,1.6,1.2,2.2c0.4,0.4,0.8,0.7,1.4,1c0.6,0.3,1.3,0.4,2,0.5
		c0.4,0,0.7,0.1,1.1,0.1c0.7,0,1.3,0,2,0c1.2,0,2.4,0,3.6,0c0.6,0,1.3,0,1.9-0.1c0.6-0.1,1.2-0.2,1.8-0.4c0.9-0.4,1.6-1,2.1-1.8
		c0.5-0.7,0.7-1.5,0.8-2.3c0.1-0.6,0.1-1.4,0.1-2.1 M-62.3,9.5C-62.3,9.5-62.3,9.5-62.3,9.5c0,1,0,1.8,0,2.7c0,0.6,0,1.2-0.1,1.8
		c0,0.5-0.1,1-0.3,1.4c-0.3,0.8-0.9,1.3-1.6,1.6c-0.4,0.2-0.8,0.3-1.2,0.3c-0.5,0.1-1.1,0.1-1.6,0.1c-1.4,0-2.7,0-4.1,0
		c-0.6,0-1.2,0-1.7,0c-0.5,0-0.9,0-1.4-0.1c-0.5-0.1-1-0.2-1.4-0.5c-0.5-0.3-0.9-0.8-1.2-1.4c-0.2-0.4-0.3-0.9-0.3-1.4
		c-0.1-0.7-0.1-1.4-0.1-2.1c0-1.1,0-2.2,0-3.2c0-0.5,0-1.1,0-1.6c0-0.4,0-0.9,0.1-1.3c0.1-0.5,0.2-1,0.4-1.5c0.3-0.6,0.8-1,1.4-1.3
		c0.4-0.2,0.9-0.3,1.4-0.4c0.6-0.1,1.2-0.1,1.8-0.1c1.3,0,2.5,0,3.8,0c0.6,0,1.2,0,1.8,0c0.4,0,0.7,0,1.1,0.1c0.5,0.1,1,0.2,1.5,0.4
		c0.6,0.3,1,0.8,1.3,1.4c0.2,0.5,0.3,0.9,0.3,1.4c0.1,0.7,0.1,1.2,0.1,2C-62.3,8.5-62.3,9.5-62.3,9.5z"/>
	<path id="XMLID_29_" class="st2" d="M-69.5,5.3c-2.6-0.1-4.9,1.9-5,4.7c0,2.6,2,4.7,4.6,4.8c2.6,0.1,4.8-1.9,4.9-4.5
		C-64.9,7.6-66.9,5.4-69.5,5.3z M-69.7,13.1c-1.7,0-3.1-1.4-3.1-3.1c0-1.7,1.3-3.1,3-3.1c1.7,0,3.1,1.3,3.2,3
		C-66.7,11.7-68,13.1-69.7,13.1z"/>
	<path id="XMLID_30_" class="st2" d="M-64.8,3.9c-0.6,0-1.1,0.5-1.1,1.1c0,0.6,0.5,1.1,1.1,1.1c0.6,0,1.1-0.5,1.1-1.1
		C-63.7,4.4-64.2,4-64.8,3.9z"/>
</g>
<g id="XMLID_58_">
	<path id="XMLID_59_" class="st2" d="M-54.1,19.3l-0.1-0.4c-0.5-2.7,0.2-5,0.8-7.3c0.2-0.8,0.4-1.5,0.6-2.3
		c-0.6-1.8-0.4-3.9,1.2-4.5c0.2-0.1,0.4-0.1,0.7-0.1c0.9,0,1.6,0.6,1.7,1.5c0.1,0.8-0.2,1.7-0.5,2.5c-0.3,0.7-0.5,1.4-0.5,2
		c0,0.6,0.5,1.2,1.5,1.2c0.1,0,0.2,0,0.3,0c0.5-0.1,0.7-0.3,0.9-0.5l0.1-0.1c1.1-1,1.7-2.8,1.6-4.8c-0.1-2.1-1.7-3.5-4-3.5
		c-0.1,0-0.3,0-0.5,0c-2.2,0.2-3.9,1.7-4.3,3.8c-0.2,0.9,0,1.9,0.4,2.5c0,0,0.1,0.1,0.1,0.1c0.1,0.1,0.3,0.3,0.3,0.6
		c0.1,0.5-0.3,1.2-0.5,1.6l-0.1,0.2l-0.2,0c-2.2-0.6-2.8-3.1-2.5-5.1c0.5-3,2.9-5.3,6.1-5.7c0.4-0.1,0.9-0.1,1.3-0.1
		c4,0,6.9,2.6,7,6.2c0.1,3.3-1.7,6.9-5.1,7.3c-0.2,0-0.4,0-0.6,0c-1.1,0-1.8-0.4-2.5-0.9c-0.4,1.6-0.8,3.2-1.7,4.5
		c-0.1,0.1-0.1,0.2-0.2,0.3c-0.2,0.4-0.5,0.9-1,1.1L-54.1,19.3z"/>
</g>
</svg>
